<svg width="126" height="35" viewBox="0 0 126 35" fill="none" xmlns="http://www.w3.org/2000/svg">
<path fill-rule="evenodd" clip-rule="evenodd" d="M16.8889 0.295898C16.4529 0.295898 15.6829 0.373015 14.6299 0.450132C14.3889 0.461728 14.1489 0.487478 13.9109 0.527248C13.783 0.541364 13.6538 0.541364 13.5259 0.527248C13.2244 0.545063 12.924 0.578491 12.6259 0.6274C12.1639 0.704516 11.6759 0.781633 11.5479 0.781633C11.3645 0.790081 11.1831 0.823781 11.0089 0.881784C10.84 0.925021 10.6687 0.958461 10.4959 0.981936C10.1591 1.02597 9.82985 1.11524 9.5169 1.24734H9.2089C9.1579 1.24734 9.0809 1.29741 9.0299 1.29741C8.9019 1.32345 8.3369 1.47768 7.9009 1.63192C7.74999 1.6851 7.59563 1.72793 7.4389 1.76011C7.31287 1.78223 7.19148 1.82558 7.0799 1.88831C6.8489 1.98846 6.7719 2.0165 6.7209 1.98846C6.63061 2.00842 6.54392 2.0422 6.4639 2.08861C6.37942 2.14444 6.28263 2.17881 6.1819 2.18876C6.1309 2.18876 6.1049 2.18876 6.1049 2.23984C6.1049 2.29091 6.0779 2.29893 6.0259 2.29893C5.94252 2.315 5.86367 2.34919 5.7949 2.39908C5.74133 2.43779 5.67986 2.46413 5.6149 2.47619C5.5149 2.37604 5.6149 13.5309 5.7149 14.0707C5.7659 14.3792 5.8149 14.7137 5.8149 14.8158C5.87894 15.3163 5.99937 15.8078 6.1739 16.2811C6.20211 16.4056 6.24508 16.5263 6.3019 16.6406V16.6917C6.30368 16.7265 6.31253 16.7606 6.3279 16.7918C6.35033 16.8895 6.38388 16.9843 6.4279 17.0743C6.46588 17.1467 6.49189 17.2248 6.5049 17.3056C6.51666 17.3414 6.53386 17.3752 6.5559 17.4058C6.5819 17.4318 6.6069 17.4829 6.5559 17.4829C6.5049 17.4829 6.5559 17.56 6.6329 17.6632C6.67973 17.7431 6.71349 17.83 6.7329 17.9205C6.7329 17.9716 6.7329 17.9977 6.7839 17.9977C6.88725 18.1414 6.9735 18.2966 7.0409 18.4604C7.12273 18.6355 7.22621 18.7997 7.3489 18.9491C7.3999 18.9491 7.3999 19.0262 7.3999 19.0492V19.1003C7.3999 19.1003 7.4509 19.1514 7.4509 19.1774C7.47655 19.2707 7.52002 19.3581 7.5789 19.4348C7.63285 19.4955 7.67613 19.565 7.7069 19.6401C7.82033 19.8221 7.94913 19.994 8.0919 20.1539C8.14901 20.2122 8.19269 20.2823 8.2199 20.3592C8.26284 20.4336 8.31454 20.5025 8.3739 20.5645C8.41899 20.6073 8.45327 20.6601 8.4739 20.7188C8.4739 20.7448 8.4999 20.7698 8.5509 20.7698C8.6019 20.7698 8.6279 20.7698 8.6279 20.8209C8.81563 21.1151 9.03974 21.3843 9.2949 21.6221C9.3949 21.7503 9.5769 21.9306 9.6799 22.0338C9.7829 22.1369 9.8599 22.214 9.8599 22.188C9.99208 22.2852 10.1126 22.3975 10.2189 22.5225C10.6258 22.9306 11.054 23.3167 11.5019 23.6792C11.5814 23.7277 11.6442 23.7994 11.6819 23.8846C11.7079 23.9617 11.7589 24.0128 11.7819 24.0128C11.8329 24.0128 11.9359 24.0899 12.3209 24.4755C12.3856 24.5498 12.4641 24.611 12.5519 24.6557C12.5779 24.6557 12.6519 24.7328 12.7059 24.81C12.7599 24.8871 12.8339 24.9642 12.8599 24.9642C13.1683 25.1812 13.4523 25.431 13.7069 25.7093C13.7881 25.8008 13.8833 25.8789 13.9889 25.9407C14.0439 25.9788 14.0954 26.0217 14.1429 26.0689C14.2199 26.146 14.2969 26.2231 14.3229 26.2231C14.3489 26.2231 14.4229 26.3002 14.5029 26.3773C14.6675 26.5562 14.8479 26.7198 15.0419 26.8661C15.1049 26.9138 15.165 26.9653 15.2219 27.0203C15.3219 27.1204 15.4019 27.1745 15.4529 27.1485C15.4019 27.1996 15.6069 27.4309 15.6839 27.4309C15.8174 27.5093 15.9247 27.6258 15.9919 27.7654C15.9919 27.8425 15.8919 27.7915 15.7099 27.6372C15.6397 27.5763 15.5621 27.5245 15.4789 27.483C15.4573 27.479 15.437 27.47 15.4196 27.4566C15.4022 27.4431 15.3882 27.4258 15.3789 27.4059C15.3789 27.3548 15.3279 27.3288 15.2789 27.3288C15.2299 27.3288 15.1789 27.2777 15.1249 27.2286C15.035 27.1466 14.9409 27.0694 14.8429 26.9973C14.7535 26.9337 14.6677 26.8651 14.5859 26.792C14.5349 26.7148 14.5349 26.7148 14.5599 26.792C14.5599 26.843 14.5089 26.792 14.4059 26.7148C13.9949 26.3803 13.8159 26.2521 13.7129 26.175C13.683 26.1652 13.6558 26.1485 13.6336 26.1263C13.6114 26.104 13.5947 26.0768 13.5849 26.0468C13.5849 26.0208 13.5849 25.9957 13.5339 26.0468C13.4984 26.0443 13.4639 26.0341 13.4328 26.0168C13.4017 25.9995 13.3748 25.9755 13.3539 25.9467C13.2249 25.8336 13.0875 25.7305 12.9429 25.6382C12.826 25.5599 12.7145 25.4739 12.6089 25.3808C12.51 25.3099 12.4158 25.2326 12.3269 25.1495C12.1989 25.0493 12.0449 24.9181 11.9679 24.867C11.8909 24.816 11.8399 24.7669 11.8139 24.7669C11.7879 24.7669 11.7139 24.6898 11.6339 24.6127C11.5539 24.5355 11.5059 24.5125 11.5059 24.5355C11.5059 24.5866 11.5059 24.5616 11.4549 24.5095C11.3009 24.3553 10.9159 24.0468 10.9159 24.0979C10.8514 24.0519 10.7912 24.0003 10.7359 23.9436C10.6359 23.8435 10.5559 23.7634 10.5309 23.7634C10.5309 23.7634 10.4539 23.7123 10.3509 23.6352C10.2879 23.5771 10.2192 23.5254 10.1459 23.4809C10.0949 23.4809 9.9919 23.3808 9.6839 23.0954C9.65442 23.065 9.62074 23.039 9.5839 23.0182C9.468 22.9386 9.35651 22.8526 9.2499 22.7609C9.0699 22.6066 8.9419 22.4784 8.9159 22.5035C8.86417 22.4837 8.81957 22.4488 8.7879 22.4033C8.64322 22.2535 8.47908 22.1238 8.2999 22.0177C8.2489 22.0177 8.1459 21.9176 7.8889 21.6322C7.8119 21.555 7.7349 21.4779 7.6839 21.4779C7.6329 21.4779 7.6069 21.4268 7.5559 21.3778C7.52696 21.3298 7.4814 21.2941 7.4279 21.2776C7.3584 21.2502 7.29662 21.2062 7.2479 21.1494C7.1709 21.0723 7.0169 20.9181 6.8889 20.8149C6.5288 20.4999 6.18596 20.1655 5.8619 19.8134C5.81881 19.7544 5.76686 19.7023 5.7079 19.6592C5.65007 19.5951 5.58047 19.5427 5.5029 19.5049C5.4769 19.5049 5.4029 19.4048 5.3229 19.2736C5.2429 19.1424 5.1689 19.0422 5.1429 19.0422C5.1169 19.0422 5.0919 18.9912 5.0659 18.9421C5.0659 18.891 5.0149 18.8419 4.9889 18.865C4.9629 18.865 4.9119 18.865 4.9119 18.7879C4.89426 18.7203 4.85986 18.6583 4.8119 18.6076C4.72165 18.5059 4.64408 18.3935 4.5809 18.2731C4.4809 18.1188 4.4009 17.9906 4.3759 17.9646C4.21456 17.7719 4.08463 17.5549 3.9909 17.3216C3.94033 17.2001 3.87117 17.0873 3.7859 16.9871C3.7859 16.9871 3.7599 16.9361 3.7859 16.91V16.8589C3.75862 16.8319 3.74074 16.7968 3.7349 16.7588C3.71276 16.6243 3.66956 16.4942 3.6069 16.3732C3.53948 16.2517 3.48773 16.1222 3.4529 15.9876C3.42744 15.8291 3.38451 15.6739 3.3249 15.5249C3.2739 15.3196 3.2249 15.0622 3.1969 14.9591C3.1459 14.4703 3.1199 14.265 3.0969 14.1368C2.98325 13.0438 2.9405 11.9445 2.9689 10.8458V8.80877L3.0969 8.70862C3.1739 8.65754 3.2509 8.60846 3.2509 8.6315C3.27055 8.62951 3.28875 8.62022 3.3019 8.60546C3.63426 8.38453 3.98645 8.1951 4.3539 8.0396L4.5589 7.93945V6.44019C4.59776 5.94276 4.58066 5.44253 4.5079 4.94893C4.49468 4.94986 4.48225 4.95554 4.47288 4.96493C4.46351 4.97431 4.45783 4.98677 4.4569 5.00001C4.4569 5.02605 4.4569 5.05109 4.4309 5.02605C4.4049 5.00101 4.3029 5.02605 4.1999 5.10317C4.11171 5.15111 4.01655 5.1849 3.9179 5.20332C3.8669 5.20332 3.8409 5.20332 3.8409 5.25439C3.8409 5.30547 3.8409 5.30547 3.7899 5.25439C3.7639 5.25439 3.7389 5.25439 3.7389 5.28043C3.7389 5.30647 3.7389 5.33151 3.7129 5.30647C3.60767 5.34273 3.5048 5.38555 3.4049 5.43467C3.2509 5.51178 3.1229 5.5889 3.1229 5.56286C3.1229 5.53682 3.0459 5.56286 2.9689 5.63998C2.8919 5.69105 2.8149 5.74013 2.8149 5.71709C2.8149 5.66602 2.3789 5.89737 2.3269 5.97448C2.3269 6.00052 2.2759 6.00052 2.2759 5.97448C2.22092 5.97732 2.16771 5.99497 2.1219 6.02556C2.03356 6.08672 1.93904 6.13842 1.8399 6.17979C1.7629 6.20583 1.6859 6.25691 1.6859 6.27994C1.6859 6.33102 1.4809 6.40814 1.4039 6.40814C1.39717 6.408 1.39047 6.40923 1.38423 6.41175C1.37798 6.41427 1.3723 6.41802 1.36754 6.42279C1.36277 6.42757 1.35902 6.43325 1.35651 6.43951C1.35399 6.44577 1.35277 6.45247 1.3529 6.45922C1.3529 6.51029 1.3269 6.51029 1.2759 6.51029C1.2249 6.51029 1.1989 6.51029 1.1989 6.56137C1.1989 6.61245 1.0709 6.66152 0.916902 6.74164C0.813199 6.78372 0.72392 6.85504 0.659902 6.94695C0.623462 6.94456 0.587104 6.95273 0.555181 6.97049C0.523258 6.98825 0.497122 7.01485 0.479902 7.0471C0.431188 7.10384 0.369407 7.14784 0.299902 7.1753C0.222902 7.1753 0.273902 12.5484 0.350902 13.2164C0.376902 13.4989 0.427902 13.8594 0.450902 14.0176C0.485586 14.1962 0.511285 14.3763 0.527902 14.5575C0.555471 14.7935 0.607073 15.026 0.681902 15.2515C0.72396 15.4254 0.775368 15.5969 0.835902 15.7653C0.934566 16.1668 1.0995 16.5489 1.3239 16.896C1.3499 16.896 1.3499 16.9471 1.3239 16.9471C1.33014 17.0294 1.35659 17.1088 1.4009 17.1784C1.45713 17.2658 1.50026 17.3609 1.5289 17.4608C1.54925 17.5148 1.57505 17.5664 1.6059 17.6151C1.66311 17.6881 1.71459 17.7655 1.7599 17.8464C1.8599 18.0778 2.0169 18.3091 2.0679 18.3091C2.08197 18.3169 2.09395 18.328 2.10282 18.3414C2.1117 18.3549 2.11722 18.3702 2.1189 18.3862C2.1189 18.4373 2.1449 18.4634 2.1959 18.4864C2.2469 18.4864 2.2729 18.5375 2.2729 18.5865C2.2729 18.6356 2.2729 18.6637 2.3239 18.6867C2.42584 18.7912 2.52008 18.903 2.6059 19.0212C2.68301 19.146 2.77802 19.2587 2.8879 19.3557C2.9139 19.3557 2.9649 19.4068 2.9879 19.4839C2.99767 19.5138 3.01435 19.5411 3.03659 19.5633C3.05883 19.5856 3.086 19.6023 3.1159 19.6121C3.1419 19.6121 3.1929 19.6121 3.1929 19.6632C3.36866 19.9579 3.60486 20.2118 3.8859 20.4083C3.95106 20.4437 4.00455 20.4973 4.0399 20.5625C4.0909 20.6397 4.1679 20.7168 4.1939 20.7168C4.28173 20.7615 4.36016 20.8227 4.4249 20.897C4.48964 20.9714 4.56807 21.0326 4.6559 21.0773C4.73347 21.1151 4.80307 21.1675 4.8609 21.2315C5.2719 21.6171 5.4509 21.7453 5.5279 21.7453C5.5539 21.7453 5.6049 21.7453 5.6049 21.7964C5.6049 21.8475 5.6819 21.8966 5.7849 21.9246C5.82446 21.9353 5.86113 21.9547 5.89226 21.9814C5.9234 22.0081 5.94821 22.0413 5.9649 22.0788C5.9649 22.1049 5.9649 22.1299 5.9909 22.1299C6.06253 22.1671 6.13108 22.21 6.1959 22.2581C6.2959 22.3582 6.3759 22.4123 6.3759 22.3863C6.3759 22.3603 6.4269 22.3863 6.4759 22.4374C6.5249 22.4884 6.6299 22.5656 6.6809 22.6176C6.75467 22.6712 6.8233 22.7316 6.8859 22.7979C6.9369 22.849 6.9859 22.8981 7.0139 22.8981C7.0419 22.8981 7.0909 22.9491 7.1679 22.9982C7.33286 23.1537 7.51349 23.2917 7.7069 23.4098L7.8609 23.51C8.1429 23.7413 8.3489 23.8956 8.3999 23.8695H8.4389C8.4389 23.9206 8.6439 24.0748 9.2089 24.4604C9.3089 24.5375 9.4659 24.6407 9.5679 24.7178C9.86538 24.9593 10.1832 25.1744 10.5179 25.3608C10.5729 25.3989 10.6244 25.4418 10.6719 25.489C10.7489 25.5661 10.8519 25.6432 10.8769 25.6172C10.9485 25.6544 11.0171 25.6972 11.0819 25.7454C11.1397 25.8095 11.2093 25.8618 11.2869 25.8996C11.3701 25.9411 11.4477 25.9929 11.5179 26.0538C11.5881 26.1147 11.6658 26.1666 11.7489 26.2081C11.7705 26.212 11.7908 26.2211 11.8082 26.2345C11.8256 26.2479 11.8396 26.2653 11.8489 26.2852C11.8489 26.3363 11.8999 26.3623 11.9259 26.3363C11.9931 26.3547 12.0548 26.389 12.1059 26.4364C12.1829 26.5135 12.2339 26.5646 12.2339 26.5366C12.2339 26.5085 12.2849 26.5626 12.3879 26.6367C12.4366 26.6935 12.4984 26.7375 12.5679 26.7649C12.7128 26.847 12.8503 26.9415 12.9789 27.0473C13.1839 27.2016 13.4149 27.3558 13.4919 27.4069C13.5689 27.458 13.6459 27.484 13.6459 27.507C13.6459 27.5301 13.7229 27.5842 13.7999 27.6072C13.8769 27.6302 13.9539 27.6843 13.9539 27.7073C13.9539 27.7304 13.9539 27.7584 14.0049 27.7584C14.1348 27.8169 14.2492 27.905 14.3389 28.0158C14.3649 28.0418 14.4159 28.0929 14.4389 28.0929C14.514 28.1237 14.5833 28.1671 14.6439 28.2211C14.7045 28.2751 14.7738 28.3185 14.8489 28.3493C14.9134 28.3731 14.9677 28.4184 15.0029 28.4775C15.0516 28.5342 15.1134 28.5782 15.1829 28.6057C15.2609 28.6305 15.3314 28.6746 15.3879 28.7339C15.4416 28.7848 15.5022 28.828 15.5679 28.8621V28.9622C15.5565 28.9882 15.5389 29.011 15.5165 29.0285C15.4942 29.046 15.4679 29.0576 15.4399 29.0624C15.3889 29.0624 15.2859 29.1625 15.1579 29.2677C15.0299 29.3729 14.9269 29.448 14.9269 29.448C14.9269 29.448 14.9009 29.448 14.8499 29.5251C14.7989 29.5762 14.7499 29.6252 14.6959 29.6252C14.6419 29.6252 14.6189 29.6252 14.6189 29.6763C14.6189 29.7274 14.3879 29.8816 14.1309 30.0879C13.9588 30.2135 13.7958 30.3511 13.6429 30.4996C13.643 30.5063 13.6418 30.513 13.6393 30.5193C13.6368 30.5255 13.633 30.5312 13.6283 30.536C13.6235 30.5407 13.6178 30.5445 13.6116 30.547C13.6053 30.5495 13.5986 30.5508 13.5919 30.5506C13.5409 30.5506 13.4379 30.6508 13.3349 30.7559C13.2606 30.8376 13.1739 30.9069 13.0779 30.9613C13.0519 30.9613 13.0009 31.0123 12.9499 31.0614C12.8989 31.1105 12.7959 31.1896 12.7189 31.2667C12.5063 31.4104 12.3234 31.5936 12.1799 31.8065C12.1799 31.8326 12.1799 31.8576 12.1289 31.8326C12.0681 31.8484 12.0141 31.8836 11.9749 31.9327C11.8979 32.0098 11.8749 32.0609 11.8979 32.0609C11.9209 32.0609 11.8979 32.0609 11.8469 32.112C11.8209 32.1234 11.7982 32.1411 11.7807 32.1634C11.7633 32.1858 11.7517 32.2122 11.7469 32.2402C11.7469 32.2913 11.7469 32.3173 11.6959 32.2913C11.6699 32.2913 11.6699 32.2913 11.6959 32.3423C11.6959 32.3934 11.6959 32.4195 11.6699 32.3934H11.6189C11.6166 32.4815 11.5993 32.5685 11.5679 32.6508C11.5288 32.9496 11.5118 33.2509 11.5169 33.5522V34.2462H23.6359V33.424C23.6301 33.1222 23.6044 32.821 23.5589 32.5226C23.5352 32.4829 23.518 32.4396 23.5079 32.3944C23.3783 32.1568 23.2138 31.9401 23.0199 31.7514C22.6349 31.3659 22.5839 31.3148 22.5319 31.3148C22.5059 31.3148 22.4549 31.2637 22.4039 31.2146C22.3779 31.1636 22.3269 31.1145 22.3039 31.1375C22.2809 31.1606 22.2269 31.1375 22.1499 31.0604C21.9222 30.8236 21.6731 30.6083 21.4059 30.4174C21.3242 30.3637 21.2469 30.3034 21.1749 30.2372C21.1239 30.1861 21.0749 30.137 21.0209 30.137C20.9669 30.137 20.9439 30.111 20.9209 30.0599C20.9197 30.0398 20.9112 30.0209 20.897 30.0067C20.8828 29.9925 20.8639 29.984 20.8439 29.9828C20.7528 29.9215 20.6668 29.8528 20.5869 29.7775C20.3819 29.5722 20.1249 29.495 20.1249 29.6493C20.1249 29.6753 20.1249 29.6753 20.0989 29.6493C20.0729 29.6232 20.0219 29.6493 19.9709 29.6753C19.9199 29.7013 19.6369 29.8556 19.3549 29.9838C19.0729 30.112 18.8159 30.2412 18.7899 30.2412C18.7515 30.2674 18.7078 30.2849 18.6619 30.2922C18.6109 30.2922 18.5619 30.3183 18.5619 30.3433C18.5619 30.3684 18.5619 30.3944 18.5359 30.3694C18.4836 30.3707 18.4317 30.3794 18.3819 30.3954C18.3309 30.4214 18.0229 30.5757 17.7399 30.7039C16.8929 31.0894 16.7649 31.1405 16.3279 31.3468C16.1229 31.447 15.9169 31.5271 15.9169 31.5271C15.9169 31.5271 15.6859 31.6273 15.4289 31.7585C15.2654 31.8444 15.0935 31.9132 14.9159 31.9638C14.8899 31.9638 14.8649 31.9638 14.8649 32.0148C14.8649 32.0659 14.8389 32.0659 14.7879 32.0659C14.6599 32.0659 14.6879 31.9888 14.8389 31.9658C14.9159 31.9658 15.0189 31.8656 15.0959 31.8115C15.1446 31.7548 15.2064 31.7108 15.2759 31.6833C15.3454 31.6559 15.4072 31.6119 15.4559 31.5552C15.5046 31.4984 15.5664 31.4544 15.6359 31.427C15.6833 31.4101 15.7268 31.3839 15.7639 31.3498C15.8065 31.3047 15.8593 31.2703 15.9179 31.2497C15.9439 31.2497 15.9689 31.2497 15.9689 31.1986C15.9689 31.1475 16.0199 31.1215 16.0969 31.0985C16.1739 31.0754 16.2249 31.0213 16.1969 30.9983C16.1969 30.9723 16.1969 30.9723 16.2479 30.9983H16.3249C16.3249 30.9983 16.3759 30.9212 16.4249 30.9212C16.576 30.8604 16.7152 30.7732 16.8359 30.6638C16.8691 30.6248 16.914 30.5978 16.9639 30.5867C17.0334 30.5592 17.0952 30.5152 17.1439 30.4585C17.1926 30.4018 17.2544 30.3578 17.3239 30.3303C17.3817 30.3081 17.4342 30.274 17.4779 30.2301C17.5549 30.1791 17.6829 30.0759 17.7599 30.0248C17.8599 29.9738 17.9399 29.9247 17.9399 29.8966C17.9399 29.8686 17.9659 29.8456 18.0169 29.8456C18.0679 29.8456 18.0939 29.8456 18.0939 29.7945C18.0939 29.7434 18.0939 29.7434 18.1449 29.7434C18.32 29.6646 18.4772 29.5507 18.6069 29.4089C18.6069 29.4089 18.6579 29.3578 18.6839 29.3578C18.7705 29.3226 18.8491 29.2701 18.9149 29.2036C19.0309 29.1241 19.1424 29.0382 19.2489 28.9462C19.3489 28.8951 19.4289 28.818 19.4289 28.792C19.4289 28.7659 19.4289 28.7659 19.4799 28.792C19.5471 28.7736 19.6088 28.7392 19.6599 28.6918C19.7284 28.6287 19.8063 28.5766 19.8909 28.5376C19.9133 28.5359 19.9346 28.5277 19.9524 28.514C19.9702 28.5003 19.9836 28.4817 19.9909 28.4605C19.9909 28.4344 20.0679 28.3834 20.1709 28.3323C20.2647 28.2847 20.3512 28.224 20.4279 28.152C20.5989 28.0196 20.779 27.8994 20.9669 27.7925C21.1643 27.6777 21.3531 27.5489 21.5319 27.4069C21.5942 27.3551 21.6631 27.312 21.7369 27.2787C21.7593 27.277 21.7806 27.2688 21.7984 27.2551C21.8162 27.2414 21.8296 27.2228 21.8369 27.2016C21.8369 27.1755 21.8629 27.1505 21.9139 27.1505C21.9649 27.1505 21.9909 27.1505 21.9909 27.0994C21.9909 27.0483 22.0909 26.9993 22.2219 26.9191C22.3529 26.839 22.4529 26.7649 22.4529 26.7389C22.4529 26.7128 22.4529 26.7128 22.5039 26.7389C22.5589 26.736 22.6121 26.7184 22.6579 26.6878C22.9562 26.4474 23.2739 26.2323 23.6079 26.0448C23.6709 25.9971 23.731 25.9456 23.7879 25.8906C23.8649 25.8135 23.9419 25.7364 23.9679 25.7624C23.9904 25.7611 24.0119 25.753 24.0298 25.7393C24.0476 25.7255 24.0609 25.7067 24.0679 25.6853C24.0939 25.6342 24.1189 25.6082 24.1189 25.6342C24.1573 25.6299 24.1929 25.6118 24.2189 25.5831C24.2699 25.532 24.3469 25.483 24.3729 25.506C24.3796 25.5061 24.3863 25.5049 24.3926 25.5024C24.3988 25.4999 24.4045 25.4961 24.4093 25.4914C24.414 25.4866 24.4178 25.4809 24.4203 25.4746C24.4228 25.4684 24.424 25.4617 24.4239 25.4549C24.4239 25.4039 24.4239 25.3778 24.4749 25.3778C24.6411 25.3161 24.7969 25.2293 24.9369 25.1204C24.9795 25.0752 25.0323 25.0409 25.0909 25.0203C25.1108 25.0228 25.1309 25.0192 25.1487 25.0101C25.1666 25.001 25.1813 24.9868 25.1909 24.9692C25.4989 24.7118 25.6019 24.6607 25.6019 24.6868C25.6019 24.6868 25.6279 24.6868 25.6529 24.6357C25.6779 24.5846 25.7299 24.5586 25.7529 24.5846H25.8039C25.8685 24.5204 25.937 24.4602 26.0089 24.4043C26.1089 24.3272 26.2139 24.2501 26.2139 24.2241C26.2139 24.198 26.2139 24.198 26.2649 24.198C26.4842 24.0966 26.6839 23.9573 26.8549 23.7864C26.8549 23.7604 26.9059 23.7604 26.9059 23.7864C26.9059 23.8124 27.0339 23.7353 27.1879 23.5811C27.2139 23.5551 27.2649 23.504 27.2879 23.504C27.479 23.4048 27.6524 23.2745 27.8009 23.1184C27.8587 23.0543 27.9283 23.0019 28.0059 22.9642C28.1032 22.9227 28.1907 22.8613 28.2629 22.7839C28.3351 22.7065 28.4226 22.6451 28.5199 22.6036C28.5844 22.5798 28.6387 22.5346 28.6739 22.4754C28.7091 22.4163 28.7634 22.371 28.8279 22.3472C28.8974 22.3198 28.9592 22.2758 29.0079 22.219C29.0566 22.1623 29.1184 22.1183 29.1879 22.0908C29.2612 22.0464 29.3299 21.9947 29.3929 21.9366C29.4469 21.8972 29.4983 21.8544 29.5469 21.8084C29.5469 21.8084 29.5979 21.8084 29.6469 21.7313C29.7368 21.6493 29.8309 21.5721 29.9289 21.5C30.0373 21.4123 30.1402 21.318 30.2369 21.2175C30.3139 21.1404 30.3909 21.0633 30.4419 21.0633C30.4929 21.0633 30.5419 21.0122 30.5699 20.9351C30.5797 20.9052 30.5964 20.8779 30.6186 20.8557C30.6408 20.8334 30.668 20.8167 30.6979 20.8069C30.7624 20.7831 30.8167 20.7378 30.8519 20.6787C30.9029 20.6016 31.1089 20.4213 31.2629 20.2671C31.3838 20.1739 31.4879 20.0608 31.5709 19.9326C31.5709 19.9326 31.5709 19.8815 31.6479 19.8555C31.6989 19.8555 31.7249 19.8044 31.6989 19.7783C31.6729 19.7523 31.6989 19.7273 31.6989 19.7523C31.8495 19.6695 31.9808 19.5555 32.0839 19.4178C32.1147 19.3576 32.1584 19.3049 32.2119 19.2636C32.2889 19.2125 32.4169 19.0322 32.5459 18.904C32.6218 18.7934 32.7079 18.6902 32.8029 18.5956C32.8289 18.5956 32.8289 18.5695 32.8029 18.5445C32.8324 18.476 32.876 18.4146 32.9309 18.3642C33.0012 18.3016 33.0543 18.222 33.0849 18.1329C33.0875 18.1071 33.0957 18.0823 33.1091 18.0601C33.1224 18.038 33.1404 18.019 33.1619 18.0047C33.3007 17.8289 33.421 17.6393 33.5209 17.4388C33.5208 17.4321 33.522 17.4254 33.5245 17.4191C33.527 17.4128 33.5308 17.4072 33.5355 17.4024C33.5403 17.3976 33.546 17.3939 33.5522 17.3913C33.5585 17.3888 33.5652 17.3876 33.5719 17.3877C33.6229 17.3877 33.6229 17.3877 33.5979 17.3617C33.6047 17.2832 33.6404 17.2101 33.6979 17.1564C33.7749 17.0562 33.8259 16.9761 33.7979 16.9761C33.7699 16.9761 33.8489 16.8479 33.9259 16.6937C34.0029 16.5395 34.0799 16.4113 34.0539 16.4113C34.0279 16.4113 34.0539 16.3341 34.1049 16.257C34.2975 15.7642 34.4519 15.2573 34.5669 14.7407C34.584 14.5496 34.6175 14.3603 34.6669 14.1749C34.7179 13.9696 34.7439 13.6351 34.7669 13.4548C34.7669 13.2745 34.7669 13.1203 34.8179 13.1203C34.8689 13.1203 34.8689 11.7582 34.8689 10.0867V7.08316L34.7149 6.92893C34.6519 6.87081 34.5832 6.81915 34.5099 6.77469C34.4383 6.73749 34.3697 6.69462 34.3049 6.6465C34.2049 6.56938 34.1249 6.5183 34.0739 6.54635H34.0229C34.0739 6.49527 33.8689 6.34104 33.6379 6.21184C33.5609 6.16076 33.3559 6.05761 33.2019 5.98049C33.0904 5.93696 32.9865 5.87613 32.8939 5.80022C32.8559 5.76557 32.8114 5.73886 32.763 5.72167C32.7146 5.70447 32.6632 5.69712 32.6119 5.70007C32.6052 5.7002 32.5985 5.69898 32.5922 5.69646C32.586 5.69394 32.5803 5.69018 32.5755 5.68541C32.5708 5.68064 32.567 5.67496 32.5645 5.6687C32.562 5.66244 32.5608 5.65574 32.5609 5.64899C32.5609 5.59791 32.4329 5.57187 32.3039 5.5208C32.1499 5.46972 32.0469 5.3926 32.0469 5.36656C32.0469 5.34052 32.0469 5.34052 32.0209 5.36656C31.9269 5.36094 31.837 5.32591 31.7639 5.26641C31.6859 5.21592 31.5985 5.18185 31.5069 5.16626C31.5035 5.1664 31.5 5.16583 31.4968 5.16457C31.4936 5.16331 31.4906 5.1614 31.4882 5.15895C31.4858 5.1565 31.4839 5.15357 31.4826 5.15035C31.4813 5.14713 31.4808 5.14368 31.4809 5.14022C31.4809 5.11418 31.4809 5.08914 31.4299 5.11418H31.3789C31.3711 5.1001 31.36 5.0881 31.3466 5.07921C31.3332 5.07032 31.3179 5.06479 31.3019 5.06311C31.1845 5.03819 31.0718 4.99493 30.9679 4.93491C30.5829 4.7296 30.5829 4.70356 30.6089 6.34905V7.80725L31.1219 8.06464C31.3303 8.15397 31.5282 8.26616 31.7119 8.39915C31.754 8.4403 31.8078 8.46727 31.8659 8.47626C31.933 8.49496 31.9946 8.52927 32.0459 8.57642C32.094 8.60815 32.1457 8.63404 32.1999 8.65353C32.1999 8.65353 32.2889 10.8879 32.2889 11.8644C32.2677 13.0506 32.1215 14.2312 31.8529 15.3867C31.8019 15.592 31.7529 15.7723 31.7529 15.7983C31.7352 15.9937 31.6643 16.1804 31.5479 16.3381C31.5479 16.3381 31.5219 16.3382 31.5479 16.3892C31.5739 16.4403 31.5479 16.4403 31.5479 16.4403C31.5338 16.4481 31.5219 16.4592 31.513 16.4726C31.5041 16.486 31.4986 16.5014 31.4969 16.5174C31.3408 16.9405 31.1246 17.3389 30.8549 17.7002C30.8482 17.7001 30.8415 17.7013 30.8352 17.7038C30.829 17.7063 30.8233 17.7101 30.8185 17.7149C30.8138 17.7196 30.81 17.7253 30.8075 17.7316C30.805 17.7378 30.8038 17.7445 30.8039 17.7513C30.7205 17.9392 30.6078 18.1127 30.4699 18.2651C30.4439 18.2911 30.3699 18.3933 30.2899 18.4704C30.2506 18.5081 30.217 18.5513 30.1899 18.5986C30.1899 18.5986 30.1129 18.6987 30.0099 18.8299C29.9259 18.902 29.8564 18.9893 29.8049 19.0873C29.7798 19.128 29.7456 19.1623 29.7049 19.1875C29.6279 19.2135 29.5769 19.2646 29.5769 19.2876C29.2231 19.6929 28.8418 20.0734 28.4359 20.4263C28.3485 20.4821 28.2706 20.5514 28.2049 20.6316C28.1049 20.7318 28.0509 20.8119 28.1049 20.7859C28.1589 20.7598 28.1559 20.7598 28.1309 20.7859C28.1309 20.8119 28.0539 20.837 28.0309 20.837C27.9481 20.8782 27.8774 20.9403 27.8259 21.0172C27.7837 21.0864 27.7207 21.1404 27.6459 21.1715C27.6459 21.1715 27.4659 21.2996 27.2869 21.4539C27.1069 21.6342 26.6969 21.9426 26.4139 22.174C26.1309 22.4053 25.8749 22.6367 25.8239 22.6877C25.8047 22.7102 25.7811 22.7286 25.7547 22.7419C25.7282 22.7551 25.6994 22.7629 25.6699 22.7649C25.6419 22.7696 25.6156 22.7813 25.5933 22.7987C25.5709 22.8162 25.5533 22.839 25.5419 22.865C25.5305 22.891 25.5129 22.9138 25.4905 22.9313C25.4682 22.9488 25.4419 22.9604 25.4139 22.9652C25.3859 22.9699 25.3596 22.9816 25.3373 22.999C25.3149 23.0165 25.2973 23.0393 25.2859 23.0653C25.2745 23.0913 25.2569 23.1141 25.2345 23.1316C25.2122 23.1491 25.1859 23.1607 25.1579 23.1655C24.8951 23.3323 24.6536 23.5308 24.4389 23.7564C24.4119 23.7837 24.3768 23.8016 24.3389 23.8074C24.2879 23.8074 24.2619 23.8074 24.2619 23.8585C24.2619 23.9096 24.2359 23.9096 24.1849 23.9096C24.1475 23.9168 24.112 23.932 24.081 23.9541C24.0499 23.9762 24.024 24.0048 24.0049 24.0378C23.9231 24.1361 23.8282 24.2227 23.7229 24.2952C23.6354 24.3508 23.5575 24.4201 23.4919 24.5005C23.4659 24.5265 23.4149 24.5776 23.3919 24.5776C23.2984 24.6257 23.212 24.6863 23.1349 24.7579C22.9397 24.9332 22.734 25.0964 22.5189 25.2466C22.3654 25.3562 22.2197 25.4763 22.0829 25.6062C22.0342 25.6629 21.9724 25.7069 21.9029 25.7344C21.8769 25.7344 21.8259 25.7344 21.8259 25.7854C21.7215 25.8875 21.6099 25.9819 21.4919 26.0679C21.3582 26.1531 21.2374 26.257 21.1329 26.3763C21.1329 26.4024 21.0559 26.4534 21.0329 26.4534C20.9601 26.4744 20.8966 26.5196 20.8529 26.5816C20.8092 26.6436 20.7457 26.6889 20.6729 26.7098C20.6143 26.7305 20.5615 26.7648 20.5189 26.81C20.3909 26.9382 20.2879 27.0413 20.2369 27.0413C20.023 27.1822 19.8252 27.3461 19.6469 27.5301C19.6469 27.5301 19.5959 27.5811 19.5699 27.5811C19.4919 27.6059 19.4214 27.65 19.3649 27.7093C19.2369 27.8095 19.2109 27.8375 19.1599 27.7604C19.1089 27.6833 19.1089 27.6833 19.1599 27.7093C19.2109 27.7354 19.2369 27.7093 19.2599 27.6322C19.2622 27.6064 19.2734 27.5822 19.2917 27.5639C19.31 27.5456 19.3341 27.5343 19.3599 27.5321C19.4794 27.4804 19.5849 27.4011 19.6679 27.3007C19.7491 27.2092 19.8443 27.1311 19.9499 27.0694C19.9798 27.0596 20.007 27.0429 20.0292 27.0206C20.0515 26.9983 20.0681 26.9711 20.0779 26.9412C20.1289 26.8641 20.1779 26.813 20.2319 26.813C20.5351 26.6192 20.8112 26.3858 21.0529 26.1189C21.1094 26.0596 21.1799 26.0155 21.2579 25.9907C21.2839 25.9907 21.3089 25.9647 21.3089 25.9136C21.3089 25.8625 21.3599 25.8135 21.4369 25.7854C21.5909 25.7344 21.7449 25.5541 21.6939 25.503H21.7199C21.7599 25.5062 21.8 25.4986 21.8361 25.481C21.8721 25.4634 21.9028 25.4364 21.9249 25.4029C22.0789 25.2747 22.1559 25.1975 22.6179 24.7859C22.7719 24.6577 22.9519 24.4775 23.0539 24.4003C23.1117 24.3362 23.1813 24.2839 23.2589 24.2461C23.2849 24.2461 23.3099 24.195 23.3359 24.146C23.3359 24.0949 23.4359 24.0178 23.5159 23.9657C23.643 23.8814 23.763 23.7869 23.8749 23.6833C23.9749 23.5831 24.2089 23.3748 24.3629 23.2466C24.5169 23.1184 24.6709 22.9642 24.7479 22.9121C24.7989 22.861 24.9529 22.7068 25.0819 22.6036C25.2109 22.5005 25.2869 22.4233 25.2619 22.4233C25.2369 22.4233 25.2619 22.3723 25.3619 22.3232C25.5765 22.1628 25.7668 21.9723 25.9269 21.7573C25.9728 21.6928 26.0243 21.6324 26.0809 21.5771C26.1452 21.5125 26.2053 21.4439 26.2609 21.3718C26.2609 21.3718 26.3609 21.2436 26.4919 21.1144C26.5833 21.033 26.6612 20.9377 26.7229 20.8319C26.7467 20.7674 26.7919 20.7129 26.8509 20.6777C26.919 20.6169 26.9795 20.5479 27.0309 20.4724C27.1971 20.2145 27.3771 19.9658 27.5699 19.7273C27.6699 19.5991 27.7239 19.4959 27.6979 19.4699C27.6719 19.4438 27.6979 19.4438 27.6979 19.4438C27.77 19.3672 27.8306 19.2805 27.8779 19.1865C27.9462 19.0612 28.0234 18.9411 28.1089 18.8269C28.1587 18.758 28.1929 18.6791 28.2089 18.5956C28.2089 18.5445 28.2089 18.4954 28.2599 18.4954C28.4311 18.2981 28.5464 18.0584 28.5939 17.8014C28.5938 17.7946 28.595 17.7879 28.5975 17.7817C28.6 17.7754 28.6038 17.7697 28.6085 17.7649C28.6133 17.7602 28.619 17.7564 28.6252 17.7539C28.6315 17.7514 28.6382 17.7501 28.6449 17.7503C28.6959 17.7503 28.6959 17.7503 28.6449 17.6992V17.6221C28.6709 17.6221 28.6959 17.545 28.7219 17.4939C28.7479 17.4428 28.7729 17.2886 28.8219 17.1854C28.8645 17.1036 28.8981 17.0172 28.9219 16.928C28.9647 16.7711 29.0161 16.6166 29.0759 16.4653C29.2448 15.9993 29.3651 15.517 29.4349 15.0262C29.4357 14.9315 29.4444 14.837 29.4609 14.7437C29.5933 14.136 29.6538 13.5148 29.6409 12.8929C29.6409 12.5845 29.6409 12.4813 29.6669 12.4813C29.6929 12.4813 29.7179 11.2214 29.7179 7.49378C29.7179 3.14921 29.7179 2.50624 29.6409 2.50624C29.551 2.49788 29.4636 2.47167 29.3839 2.42912C28.9989 2.27489 28.3569 2.04354 28.0749 1.96642C27.9424 1.93644 27.8131 1.8935 27.6889 1.83823C27.6261 1.8333 27.5649 1.81594 27.5089 1.78715C27.378 1.75253 27.2494 1.70971 27.1239 1.65896C26.9699 1.60788 26.8419 1.55881 26.8159 1.55881H26.6109C26.4513 1.53966 26.2956 1.49644 26.1489 1.43061C25.9903 1.37461 25.8279 1.33009 25.6629 1.29741C25.4976 1.27876 25.3342 1.24524 25.1749 1.19726C25.0243 1.1499 24.8696 1.11637 24.7129 1.09711C24.6432 1.10154 24.5734 1.0913 24.5079 1.06706C24.1283 0.965165 23.7425 0.887888 23.3529 0.835714C23.05 0.803359 22.7494 0.751845 22.4529 0.681481C22.1652 0.61852 21.8735 0.575685 21.5799 0.553288C21.4799 0.553288 21.0669 0.527248 20.6799 0.476171C20.2929 0.425094 19.5509 0.37602 19.0369 0.347977C18.2935 0.296434 17.5473 0.296434 16.8039 0.347977M19.9099 3.97246C20.2863 3.99244 20.6573 4.07047 21.0099 4.20381C21.0609 4.20381 21.1099 4.25488 21.1639 4.25488C21.5142 4.38035 21.8496 4.54426 22.1639 4.74362C22.4253 4.89149 22.6596 5.08284 22.8569 5.30948C23.2159 5.66902 23.2929 5.79822 23.2929 5.84929C23.2969 5.87092 23.3059 5.89128 23.3193 5.9087C23.3327 5.92612 23.35 5.94009 23.3699 5.94944C23.4741 6.06458 23.5607 6.19451 23.6269 6.33503C23.7269 6.54034 23.8069 6.66953 23.8319 6.66953C23.8569 6.66953 23.8579 6.66953 23.8579 6.72061C23.8761 6.9055 23.9191 7.08709 23.9859 7.26043C24.1785 10.7631 24.1785 14.2737 23.9859 17.7763C23.9593 17.8646 23.9259 17.9507 23.8859 18.0337C23.869 18.1051 23.8431 18.1741 23.8089 18.239V18.3933C23.7165 18.6509 23.5868 18.8935 23.4239 19.1133C23.3899 19.1505 23.3637 19.1941 23.3469 19.2415C23.3469 19.2415 23.1669 19.4729 22.9109 19.7553C22.7696 19.9138 22.6151 20.0599 22.4489 20.192C22.4489 20.1659 22.3979 20.192 22.2179 20.3462C22.1611 20.3851 22.1009 20.4186 22.0379 20.4464C21.9491 20.4629 21.868 20.5079 21.8069 20.5746C21.7649 20.6157 21.711 20.6427 21.6529 20.6517C21.6529 20.6517 21.6019 20.6517 21.6019 20.6777C21.6019 20.7037 21.5509 20.7288 21.4739 20.7288C21.3981 20.7268 21.3246 20.7544 21.2689 20.8059C21.2109 20.8535 21.1388 20.8806 21.0639 20.883C21.0129 20.883 20.9869 20.883 21.0129 20.9341V20.9601C20.8808 20.9609 20.7501 20.9871 20.6279 21.0373C20.3911 21.0946 20.151 21.1375 19.9089 21.1654C19.7184 21.1712 19.529 21.1971 19.3439 21.2426C19.2057 21.2484 19.0683 21.2655 18.9329 21.2936C18.4969 21.2936 11.5149 21.3197 11.5149 21.2936C11.5149 21.2936 12.0279 20.6767 12.4649 20.2651C12.5929 20.1369 12.6959 20.0077 12.6699 20.0077C12.6439 20.0077 12.6699 19.9817 12.7469 19.9306L12.8749 19.8535V5.33452L12.6699 5.12921C12.5953 5.05789 12.5267 4.98051 12.4649 4.89785C12.3548 4.7361 12.2154 4.59648 12.0539 4.48623C12.007 4.43848 11.9642 4.38689 11.9259 4.332C11.8559 4.21703 11.7693 4.11308 11.6689 4.02353L11.4889 3.84326H15.5699C17.8029 3.89434 19.8049 3.92038 19.9849 3.92038M16.7509 12.4553V18.1369H17.8889C19.0949 18.0858 19.2489 18.0598 19.5059 17.8284C19.5829 17.7773 19.6339 17.7283 19.6339 17.7513C19.6339 17.8514 19.8649 17.546 19.9929 17.2886L20.1469 16.9801V12.3792C20.1469 7.18631 20.1979 7.72613 19.7109 7.26343C19.6226 7.16878 19.5184 7.09046 19.4029 7.03208H19.3489C19.2719 6.87785 18.7839 6.80073 17.7829 6.80073H16.7559V12.4823M97.2799 8.70261C97.2799 8.70261 96.5609 8.72865 95.6889 8.75368C94.9506 8.73546 94.2121 8.77833 93.4809 8.88188C93.2615 8.92857 93.0382 8.95439 92.8139 8.95899C92.8139 8.95899 92.5829 8.98503 92.3259 9.03611C92.1429 9.06337 91.9626 9.10625 91.7869 9.1643C91.7099 9.1643 91.7099 10.1658 91.6869 17.6221V26.0799H95.6869V12.4042L95.8669 12.3531C96.4471 12.2883 97.0327 12.2883 97.6129 12.3531C97.6389 12.3792 97.6899 12.4042 97.7129 12.3531C97.7899 12.276 98.5129 12.7647 98.5129 12.919C98.5129 12.9701 98.5129 12.9961 98.5639 12.9961C98.6149 12.9961 98.6149 12.9961 98.6149 13.0472C98.6172 13.1352 98.6345 13.2223 98.6659 13.3046C98.7169 13.4588 98.7169 15.1303 98.7169 19.8084V26.1069H102.259V12.6866L102.67 12.5584C103.799 12.2239 104.955 12.4813 105.109 13.0983C105.119 13.1716 105.145 13.2418 105.186 13.3036C105.186 13.3296 105.212 13.3807 105.212 13.4037V26.1069H109.268V19.1915C109.242 12.919 109.217 12.25 109.14 11.9675C109.089 11.7873 109.063 11.608 109.04 11.5309C109.027 11.4143 108.993 11.301 108.94 11.1964C108.897 11.1145 108.864 11.0282 108.84 10.939C108.753 10.7608 108.64 10.5962 108.506 10.4502C108.506 10.4502 108.455 10.3992 108.455 10.3731C108.264 10.1209 108.04 9.89608 107.788 9.70512C107.606 9.55485 107.408 9.42551 107.198 9.31954C107.198 9.31954 107.147 9.31954 107.147 9.2935C107.147 9.26746 107.07 9.24242 106.993 9.21638C106.916 9.21638 106.813 9.16531 106.813 9.13927C106.813 9.11323 106.736 9.08819 106.659 9.08819C106.582 9.08819 106.531 9.08819 106.505 9.03711C106.266 8.93791 106.016 8.86893 105.761 8.8318C104.89 8.75366 104.016 8.73659 103.143 8.78072C102.78 8.80507 102.42 8.85663 102.065 8.93496C101.964 8.96241 101.861 8.97952 101.757 8.98604C101.706 8.98604 101.603 8.98604 101.577 9.01207C101.551 9.01207 101.477 9.06315 101.423 9.06315C101.06 9.15622 100.708 9.28539 100.371 9.44873C100.307 9.45029 100.244 9.43249 100.191 9.39766C99.9501 9.25253 99.6912 9.14005 99.4209 9.06315C99.3699 9.06315 99.3439 9.06315 99.3439 9.03711C99.3439 9.01107 99.2929 9.01107 99.2439 9.01107C99.1949 9.01107 98.9869 8.96 98.7559 8.91092C98.46 8.84769 98.1585 8.81415 97.8559 8.81077C97.6746 8.82453 97.4924 8.80726 97.3169 8.75969H97.2659M39.2279 9.0942C39.2668 9.18688 39.3186 9.27355 39.3819 9.35159C39.4589 9.4287 39.5099 9.50582 39.4819 9.50582C39.4539 9.50582 39.5079 9.58294 39.5819 9.66005C39.6386 9.70884 39.6825 9.77072 39.7099 9.84033C39.7373 9.90994 39.7812 9.97181 39.8379 10.0206C39.89 10.0682 39.9251 10.1315 39.9379 10.2009V10.2519C40.002 10.3167 40.0621 10.3852 40.1179 10.4573L40.2459 10.6626V24.5896L40.0659 24.7699L39.8859 24.9752C39.8478 25.0303 39.805 25.0819 39.7579 25.1294C39.6751 25.2219 39.6061 25.3258 39.5529 25.4379C39.5019 25.5381 39.4529 25.6182 39.4249 25.6182C39.3969 25.6182 39.3739 25.6182 39.3989 25.6442C39.4239 25.6703 39.3729 25.7444 39.2709 25.7985C38.8599 26.133 38.7579 26.133 42.4799 26.133C46.3049 26.133 47.3059 26.0819 47.7939 25.9276C47.9447 25.874 48.0991 25.8312 48.2559 25.7995C48.4985 25.7367 48.7315 25.6417 48.9489 25.517C48.9999 25.517 49.1539 25.3888 49.3339 25.3117C49.7212 25.0997 50.0614 24.8111 50.3339 24.4634C50.3339 24.4124 50.3339 24.3863 50.3849 24.3863C50.5184 24.3079 50.6257 24.1915 50.6929 24.0518C50.7237 23.9766 50.767 23.9072 50.8209 23.8465C51.0162 23.5397 51.1553 23.2006 51.2319 22.845C51.2423 22.7389 51.2682 22.635 51.3089 22.5365C51.4877 19.0925 51.445 15.6404 51.1809 12.2019C51.1809 12.2019 51.1549 12.2019 51.1809 12.1508C51.1113 11.8285 50.9806 11.5225 50.7959 11.2495C50.7959 11.2495 50.7189 11.1493 50.6419 11.0181C50.3949 10.6541 50.0814 10.3401 49.7179 10.0927C49.6919 10.0927 49.6409 10.0927 49.6409 10.0416C49.5625 9.92531 49.4433 9.84274 49.3069 9.81028C49.2203 9.78784 49.1408 9.74373 49.0759 9.68209C48.9759 9.62554 48.8731 9.57406 48.7679 9.52785C48.7008 9.52358 48.6373 9.49635 48.5879 9.45074C48.4199 9.36018 48.2375 9.2992 48.0489 9.27047C47.8412 9.24034 47.6354 9.19752 47.4329 9.14227C46.7909 9.01408 47.3329 9.01408 42.8899 8.98804H39.1399V9.06515M53.4629 8.98804C53.4629 8.98804 53.4369 12.8699 53.4369 17.549V26.0839H57.4369V20.1449H58.6949C59.3879 20.1709 60.0039 20.196 60.0549 20.222C60.0985 20.2253 60.1415 20.234 60.1829 20.2481C60.2599 20.2481 60.4909 20.5054 60.5679 20.6597C60.6992 21.5885 60.7251 22.5293 60.6449 23.4639V26.0859H64.7519V23.3818C64.7259 21.8905 64.7009 20.6306 64.6749 20.5535C64.6749 20.4764 64.6239 20.3222 64.5979 20.1679C64.5469 19.9105 64.3409 19.551 64.2639 19.551C64.2379 19.551 64.2379 19.525 64.2639 19.4999C64.2651 19.4761 64.2611 19.4524 64.2523 19.4303C64.2435 19.4082 64.2301 19.3882 64.2129 19.3717C64.1507 19.3283 64.1054 19.2646 64.0849 19.1915C64.0589 19.1404 64.0079 19.0913 63.9849 19.0913C63.859 19.0345 63.7387 18.9658 63.6259 18.886C63.4486 18.7557 63.2485 18.6599 63.0359 18.6036L62.7789 18.5525L63.0609 18.3722C63.1774 18.3045 63.2816 18.2175 63.3689 18.1148C63.3689 18.0888 63.4459 18.0377 63.4689 18.0377C63.5199 18.0377 63.7769 17.8064 63.7769 17.7293C63.8067 17.6839 63.8402 17.641 63.8769 17.6011C63.922 17.5583 63.9563 17.5055 63.9769 17.4468C63.9769 17.4208 63.9769 17.3697 64.0279 17.3697C64.1661 17.1495 64.2617 16.9052 64.3099 16.6496C64.3951 14.842 64.3781 13.0311 64.2589 11.2254C64.1804 10.9511 64.0592 10.6908 63.8999 10.4543C63.8699 10.4244 63.844 10.3907 63.8229 10.3541C63.66 10.111 63.4611 9.89418 63.2329 9.71113C63.1921 9.69691 63.1571 9.66986 63.1329 9.63402C62.8684 9.44635 62.5729 9.307 62.2599 9.22239C62.1276 9.20698 61.998 9.17328 61.8749 9.12224C61.6226 9.05635 61.3649 9.01345 61.1049 8.99405C60.5399 8.94297 53.5049 8.91693 53.4559 8.99405M69.9869 8.99405C69.7517 9.00947 69.5191 9.0525 69.2939 9.12224C69.1139 9.17332 68.9349 9.22239 68.9089 9.22239C68.8829 9.22239 68.7809 9.27347 68.7039 9.29951C68.5545 9.37078 68.4001 9.43103 68.2419 9.47978C68.2093 9.49751 68.1826 9.52429 68.1649 9.5569C68.1649 9.60798 68.0879 9.63402 68.0649 9.63402C67.9783 9.66924 67.8997 9.72171 67.8339 9.78825C67.7802 9.8392 67.7196 9.88235 67.6539 9.91644L67.4739 10.0967C67.3969 10.1969 67.2689 10.3281 67.2169 10.4052C67.1063 10.5206 67.0269 10.6622 66.9859 10.8168C66.9694 10.8704 66.9338 10.916 66.8859 10.945C66.8665 10.9653 66.8519 10.9897 66.843 11.0164C66.8342 11.043 66.8314 11.0713 66.8349 11.0992V11.1503C66.6703 11.414 66.5734 11.7144 66.5529 12.0246C66.5269 12.4363 66.5529 22.8219 66.5529 23.1304C66.6056 23.5373 66.7363 23.9301 66.9379 24.2872C66.9639 24.3132 67.0149 24.4154 67.0659 24.4925C67.1429 24.6727 67.6309 25.2376 67.7079 25.2126C67.7079 25.2126 67.7589 25.2126 67.7849 25.2897C67.7861 25.3097 67.7946 25.3287 67.8088 25.3429C67.823 25.3571 67.8419 25.3656 67.8619 25.3668C67.9806 25.4121 68.0929 25.4727 68.1959 25.5471C68.313 25.6349 68.4428 25.7041 68.5809 25.7524C68.7216 25.7823 68.8592 25.8252 68.9919 25.8806C69.4279 26.0348 70.1979 26.0859 73.1759 26.0859H75.8199V22.842H73.3819C72.0469 22.842 70.9179 22.8159 70.8919 22.7909C70.8659 22.7909 70.7639 22.6627 70.6869 22.5856L70.5329 22.4053V19.1404H75.2049V17.546L75.2309 15.9526H70.5069V12.7387L70.6349 12.5334C70.8399 12.1989 70.8399 12.1989 73.4349 12.1989H75.7969V8.96H73.0489C71.5349 8.96 70.1229 8.98603 69.9169 9.01107M77.7459 9.01107C77.7459 9.01107 77.7199 12.8929 77.7199 17.572V26.1069H81.7759V20.1679H85.1639V23.1244L85.1899 26.0809H87.2689L89.3479 26.1069V19.551C89.3219 13.5099 89.2969 12.9701 89.2199 12.6616C89.1761 12.5186 89.1427 12.3727 89.1199 12.2249C89.1186 12.1775 89.1005 12.1321 89.0689 12.0967C89.0549 12.0553 89.0462 12.0122 89.0429 11.9685C89.0245 11.8697 88.9908 11.7744 88.9429 11.6861C88.895 11.5978 88.8613 11.5025 88.8429 11.4037C88.8429 11.3777 88.8429 11.3266 88.7919 11.3266C88.7409 11.3266 88.7409 11.3266 88.7409 11.2755C88.7409 11.1984 88.4069 10.6846 88.3559 10.7357C88.2093 10.4802 88.0078 10.2605 87.7659 10.0927C87.7399 10.0927 87.7149 10.0927 87.6889 10.0416C87.5194 9.86308 87.3074 9.73043 87.0729 9.65605C87.0662 9.65618 87.0595 9.65496 87.0532 9.65244C87.047 9.64992 87.0413 9.64616 87.0365 9.64139C87.0318 9.63662 87.028 9.63094 87.0255 9.62468C87.023 9.61842 87.0218 9.61172 87.0219 9.60497C86.708 9.43075 86.3714 9.30099 86.0219 9.21939C85.9008 9.20081 85.7809 9.17506 85.6629 9.14227C85.5349 9.11623 85.4319 9.09119 85.4059 9.11623H85.3189C82.807 8.94524 80.2881 8.90245 77.7719 8.98804M112.733 9.24543C112.682 9.39966 112.605 9.68209 112.553 9.83632C112.501 9.99055 112.453 10.1708 112.425 10.2219C112.425 10.273 112.297 10.6075 112.194 10.967C112.094 11.2268 112.016 11.4949 111.963 11.7682C111.949 11.8764 111.915 11.9811 111.863 12.0767C111.823 12.1598 111.789 12.2458 111.763 12.3341C111.763 12.4112 111.763 12.4623 111.737 12.4623C111.711 12.4623 111.737 12.5134 111.737 12.5624C111.737 12.6396 111.788 12.6626 112.61 12.6626H113.483V26.1069H117.539V8.93396H112.867L112.767 9.24242M120.416 9.01107C120.343 9.24693 120.257 9.47863 120.159 9.70512C120.133 9.7562 120.108 9.83332 120.133 9.85935C120.133 9.94284 120.106 10.0241 120.056 10.0907C120.005 10.1909 119.956 10.3731 119.902 10.5023C119.876 10.6305 119.802 10.8619 119.748 11.0161C119.694 11.1703 119.648 11.2985 119.648 11.2985C119.617 11.4473 119.574 11.5934 119.52 11.7352C119.432 11.9867 119.364 12.2445 119.315 12.5064V12.6606H121.061V26.1069H125.061V8.93396H122.751C121.972 8.85982 121.188 8.88574 120.416 9.01107ZM59.8149 12.0447C59.9887 12.1504 60.1307 12.3013 60.2259 12.4813L60.3799 12.7637V14.4603L60.3539 16.1569L60.1999 16.4393C60.1229 16.5935 60.0459 16.6967 60.0199 16.6967C59.9815 16.701 59.9459 16.7191 59.9199 16.7478C59.7659 16.902 59.4579 16.9531 58.4569 16.9791H57.4569V11.8644H58.5089L59.5609 11.8904L59.8179 12.0447M84.5119 12.0447C84.6659 12.1218 84.7689 12.1448 84.7689 12.1218C84.7689 12.0987 84.7689 12.0957 84.7949 12.1218C84.7949 12.1729 84.8949 12.276 84.9749 12.3792C85.2319 12.7137 85.2319 12.7908 85.2319 14.9501V16.9811H81.8279V11.8644H83.0339C84.2149 11.9155 84.2399 11.9155 84.4969 12.0447M45.9419 12.0957C46.0801 12.1143 46.2173 12.14 46.3529 12.1729C46.4262 12.1827 46.4963 12.2091 46.5579 12.25C46.6089 12.276 46.6349 12.301 46.6349 12.25C46.6349 12.1989 46.6609 12.25 46.7119 12.301C46.7629 12.3521 46.7889 12.3782 46.7889 12.3521C46.7889 12.275 46.9939 12.5064 47.1739 12.7888L47.3539 13.0712V17.4929C47.3539 21.7093 47.3279 21.9406 47.2259 22.0688C47.1942 22.117 47.1684 22.1688 47.1489 22.223C47.1999 22.223 46.9179 22.5055 46.6869 22.6597C46.4049 22.865 46.1989 22.9171 45.1729 22.9421H44.2489V12.0186H44.9419C45.2678 12.0029 45.5944 12.02 45.9169 12.0697" fill="white"/>
<path fill-rule="evenodd" clip-rule="evenodd" d="M3.2022 5.59234C3.2022 5.59234 3.1512 5.66946 3.2532 5.59234C3.4332 5.49219 3.4332 5.49219 3.3532 5.49219C3.3022 5.49219 3.2532 5.54326 3.1992 5.5693M23.8402 6.61989C23.8402 6.61989 23.8912 6.90232 23.9402 6.90232V6.77112C23.9142 6.69367 23.9142 6.64226 23.9402 6.61689V6.59485C23.9335 6.59472 23.9268 6.59595 23.9205 6.59846C23.9143 6.60098 23.9086 6.60474 23.9038 6.60951C23.8991 6.61428 23.8953 6.61997 23.8928 6.62623C23.8903 6.63248 23.8891 6.63919 23.8892 6.64593M94.9892 8.72808C94.8352 8.75412 96.8632 8.72808 97.1712 8.72808H96.2472C95.6572 8.72808 95.0922 8.72808 94.9892 8.75412M97.3512 8.72808L97.6592 8.77916H97.8132C97.6852 8.72808 97.3002 8.70204 97.3512 8.75312M103.151 8.77916C103.151 8.77916 103.151 8.8052 103.305 8.77916C103.459 8.77916 103.587 8.75312 103.587 8.72808C103.638 8.677 103.253 8.72808 103.151 8.75412M103.767 8.75412C104.263 8.79441 104.761 8.79441 105.256 8.75412C105.205 8.75412 104.82 8.72808 104.383 8.72808H103.767M29.7182 12.7642V12.7902V12.7642ZM34.9802 12.8904V12.9164V12.8904ZM70.7112 15.95H70.6852H70.7112ZM71.1982 15.95H71.1722H71.1982ZM72.1722 15.95H72.1462H72.1722ZM73.4552 15.95H73.4292H73.4552ZM74.5292 15.95H74.5032H74.5292ZM75.0932 15.95C75.2108 16.4725 75.2445 17.0103 75.1932 17.5434V17.5174C75.1932 15.975 75.1932 15.924 75.0932 15.924M63.5932 18.9065C63.7732 19.0347 63.8752 19.0607 63.7472 18.9575C63.6925 18.9155 63.6318 18.8817 63.5672 18.8574C63.5412 18.8574 63.5672 18.8574 63.5932 18.9085" fill="white"/>
<path fill-rule="evenodd" clip-rule="evenodd" d="M3.2022 5.59234C3.2022 5.59234 3.1512 5.66946 3.2532 5.59234C3.4332 5.49219 3.4332 5.49219 3.3532 5.49219C3.3022 5.49219 3.2532 5.54326 3.1992 5.5693M23.8402 6.61989C23.8402 6.61989 23.8912 6.90232 23.9402 6.90232V6.77112C23.9142 6.69367 23.9142 6.64226 23.9402 6.61689V6.59485C23.9335 6.59472 23.9268 6.59595 23.9205 6.59846C23.9143 6.60098 23.9086 6.60474 23.9038 6.60951C23.8991 6.61428 23.8953 6.61997 23.8928 6.62623C23.8903 6.63248 23.8891 6.63919 23.8892 6.64593M94.9892 8.72808C94.8352 8.75412 96.8632 8.72808 97.1712 8.72808H96.2472C95.6572 8.72808 95.0922 8.72808 94.9892 8.75412M97.3512 8.72808L97.6592 8.77916H97.8132C97.6852 8.72808 97.3002 8.70204 97.3512 8.75312M103.151 8.77916C103.151 8.77916 103.151 8.8052 103.305 8.77916C103.459 8.77916 103.587 8.75312 103.587 8.72808C103.638 8.677 103.253 8.72808 103.151 8.75412M103.767 8.75412C104.263 8.79441 104.761 8.79441 105.256 8.75412C105.205 8.75412 104.82 8.72808 104.383 8.72808H103.767M29.7182 12.7642V12.7902V12.7642ZM34.9802 12.8904V12.9164V12.8904ZM70.7112 15.95H70.6852H70.7112ZM71.1982 15.95H71.1722H71.1982ZM72.1722 15.95H72.1462H72.1722ZM73.4552 15.95H73.4292H73.4552ZM74.5292 15.95H74.5032H74.5292ZM75.0932 15.95C75.2108 16.4725 75.2445 17.0103 75.1932 17.5434V17.5174C75.1932 15.975 75.1932 15.924 75.0932 15.924M63.5932 18.9065C63.7732 19.0347 63.8752 19.0607 63.7472 18.9575C63.6925 18.9155 63.6318 18.8817 63.5672 18.8574C63.5412 18.8574 63.5672 18.8574 63.5932 18.9085" fill="white"/>
<path fill-rule="evenodd" clip-rule="evenodd" d="M3.2022 5.59234C3.2022 5.59234 3.1512 5.66946 3.2532 5.59234C3.4332 5.49219 3.4332 5.49219 3.3532 5.49219C3.3022 5.49219 3.2532 5.54326 3.1992 5.5693M23.8402 6.61989C23.8402 6.61989 23.8912 6.90232 23.9402 6.90232V6.77112C23.9142 6.69367 23.9142 6.64226 23.9402 6.61689V6.59485C23.9335 6.59472 23.9268 6.59595 23.9205 6.59846C23.9143 6.60098 23.9086 6.60474 23.9038 6.60951C23.8991 6.61428 23.8953 6.61997 23.8928 6.62623C23.8903 6.63248 23.8891 6.63919 23.8892 6.64593M94.9892 8.72808C94.8352 8.75412 96.8632 8.72808 97.1712 8.72808H96.2472C95.6572 8.72808 95.0922 8.72808 94.9892 8.75412M97.3512 8.72808L97.6592 8.77916H97.8132C97.6852 8.72808 97.3002 8.70204 97.3512 8.75312M103.151 8.77916C103.151 8.77916 103.151 8.8052 103.305 8.77916C103.459 8.77916 103.587 8.75312 103.587 8.72808C103.638 8.677 103.253 8.72808 103.151 8.75412M103.767 8.75412C104.263 8.79441 104.761 8.79441 105.256 8.75412C105.205 8.75412 104.82 8.72808 104.383 8.72808H103.767M29.7182 12.7642V12.7902V12.7642ZM34.9802 12.8904V12.9164V12.8904ZM70.7112 15.95H70.6852H70.7112ZM71.1982 15.95H71.1722H71.1982ZM72.1722 15.95H72.1462H72.1722ZM73.4552 15.95H73.4292H73.4552ZM74.5292 15.95H74.5032H74.5292ZM75.0932 15.95C75.2108 16.4725 75.2445 17.0103 75.1932 17.5434V17.5174C75.1932 15.975 75.1932 15.924 75.0932 15.924M63.5932 18.9065C63.7732 19.0347 63.8752 19.0607 63.7472 18.9575C63.6925 18.9155 63.6318 18.8817 63.5672 18.8574C63.5412 18.8574 63.5672 18.8574 63.5932 18.9085" fill="white"/>
<path fill-rule="evenodd" clip-rule="evenodd" d="M3.2022 5.59234C3.2022 5.59234 3.1512 5.66946 3.2532 5.59234C3.4332 5.49219 3.4332 5.49219 3.3532 5.49219C3.3022 5.49219 3.2532 5.54326 3.1992 5.5693M23.8402 6.61989C23.8402 6.61989 23.8912 6.90232 23.9402 6.90232V6.77112C23.9142 6.69367 23.9142 6.64226 23.9402 6.61689V6.59485C23.9335 6.59472 23.9268 6.59595 23.9205 6.59846C23.9143 6.60098 23.9086 6.60474 23.9038 6.60951C23.8991 6.61428 23.8953 6.61997 23.8928 6.62623C23.8903 6.63248 23.8891 6.63919 23.8892 6.64593M94.9892 8.72808C94.8352 8.75412 96.8632 8.72808 97.1712 8.72808H96.2472C95.6572 8.72808 95.0922 8.72808 94.9892 8.75412M97.3512 8.72808L97.6592 8.77916H97.8132C97.6852 8.72808 97.3002 8.70204 97.3512 8.75312M103.151 8.77916C103.151 8.77916 103.151 8.8052 103.305 8.77916C103.459 8.77916 103.587 8.75312 103.587 8.72808C103.638 8.677 103.253 8.72808 103.151 8.75412M103.767 8.75412C104.263 8.79441 104.761 8.79441 105.256 8.75412C105.205 8.75412 104.82 8.72808 104.383 8.72808H103.767M29.7182 12.7642V12.7902V12.7642ZM34.9802 12.8904V12.9164V12.8904ZM70.7112 15.95H70.6852H70.7112ZM71.1982 15.95H71.1722H71.1982ZM72.1722 15.95H72.1462H72.1722ZM73.4552 15.95H73.4292H73.4552ZM74.5292 15.95H74.5032H74.5292ZM75.0932 15.95C75.2108 16.4725 75.2445 17.0103 75.1932 17.5434V17.5174C75.1932 15.975 75.1932 15.924 75.0932 15.924M63.5932 18.9065C63.7732 19.0347 63.8752 19.0607 63.7472 18.9575C63.6925 18.9155 63.6318 18.8817 63.5672 18.8574C63.5412 18.8574 63.5672 18.8574 63.5932 18.9085" fill="white"/>
</svg>
