<svg width="171" height="39" viewBox="0 0 171 39" fill="none" xmlns="http://www.w3.org/2000/svg">
<path d="M3.26633 30.584H4.76633L7.24033 37.238H5.71233L5.21233 35.7628H2.73633L2.20833 37.238H0.736328L3.26633 30.584ZM3.12733 34.6772H4.85133L4.01633 32.2265L3.15433 34.6762L3.12733 34.6772Z" fill="white"/>
<path d="M10.4111 30.584H11.8841V33.1459H14.5841V30.584H16.0551V37.238H14.5811V34.3707H11.8811V37.238H10.4111V30.584Z" fill="white"/>
<path d="M18.4453 31.6696H17.1113V30.584H18.4453V31.6696ZM17.1113 32.4218H18.4453V37.239H17.1113V32.4218Z" fill="white"/>
<path d="M21.3373 32.4221H22.3103V33.3134H21.3373V35.7081C21.3373 36.1537 21.4483 36.2649 21.8933 36.2649C22.0329 36.2695 22.1726 36.2601 22.3103 36.2369V37.2674C22.0523 37.3019 21.7925 37.3207 21.5323 37.3235C20.7263 37.3235 20.0033 37.1563 20.0033 36.1818V33.3405H19.1963V32.4491H20.0023V31.002H21.3373V32.4501V32.4221Z" fill="white"/>
<path d="M23.0882 33.8957C23.1712 32.6708 24.2882 32.2812 25.3402 32.2812C26.3132 32.2812 27.4532 32.5036 27.4532 33.6453V36.1491C27.4333 36.5186 27.4902 36.8883 27.6202 37.2347H26.2852C26.2284 37.0834 26.2002 36.9227 26.2022 36.761C25.9878 36.9639 25.7341 37.1205 25.4568 37.2211C25.1795 37.3217 24.8846 37.3642 24.5902 37.3459C23.6732 37.3459 22.9502 36.9002 22.9502 35.8977C22.9502 33.6944 26.2032 34.8672 26.1502 33.8096C26.1502 33.2527 25.7612 33.1696 25.2882 33.1696C24.7882 33.1696 24.4542 33.3649 24.4262 33.8937H23.0882V33.8957ZM26.1462 34.8702C25.9242 35.0655 25.4462 35.0655 25.0342 35.1486C24.6222 35.2317 24.2562 35.3709 24.2562 35.8496C24.2562 36.3284 24.6452 36.4626 25.0622 36.4626C25.2107 36.4774 25.3606 36.4586 25.5008 36.4075C25.641 36.3563 25.7679 36.2742 25.872 36.1672C25.9762 36.0602 26.0549 35.9311 26.1024 35.7894C26.1498 35.6477 26.1648 35.4972 26.1462 35.3489V34.8481V34.8702Z" fill="white"/>
<path d="M31.6507 34.1211C31.6441 34.0013 31.6134 33.8842 31.5604 33.7766C31.5074 33.6691 31.4332 33.5734 31.3423 33.4954C31.2514 33.4173 31.1456 33.3585 31.0314 33.3225C30.9172 33.2865 30.7969 33.274 30.6777 33.2858C29.8437 33.2858 29.5377 34.1491 29.5377 34.8452C29.5377 35.5412 29.8157 36.3765 30.6497 36.3765C30.9184 36.386 31.1799 36.289 31.3776 36.1066C31.5753 35.9241 31.6932 35.671 31.7057 35.402H32.9847C32.9403 35.9705 32.6723 36.498 32.2397 36.8687C31.8072 37.2394 31.2453 37.4229 30.6777 37.379C30.3516 37.3914 30.0266 37.3352 29.7236 37.2141C29.4206 37.0929 29.1463 36.9095 28.9183 36.6757C28.6904 36.4419 28.514 36.1628 28.4003 35.8565C28.2867 35.5502 28.2385 35.2234 28.2587 34.8972C28.2301 34.5605 28.2724 34.2215 28.3829 33.9022C28.4934 33.5829 28.6697 33.2904 28.9003 33.0437C29.1309 32.797 29.4107 32.6016 29.7215 32.47C30.0324 32.3385 30.3673 32.2739 30.7047 32.2803C30.9745 32.2464 31.2483 32.2677 31.5096 32.3429C31.7709 32.418 32.0143 32.5455 32.225 32.7176C32.4357 32.8897 32.6094 33.1028 32.7355 33.344C32.8616 33.5852 32.9375 33.8496 32.9587 34.1211H31.6507Z" fill="white"/>
<path d="M33.8193 30.584H35.1533V33.0878H35.1813C35.329 32.843 35.5369 32.6402 35.7852 32.4989C36.0334 32.3575 36.3138 32.2824 36.5993 32.2805C38.0173 32.2805 38.3503 33.0597 38.3503 34.2575V37.237H37.0193V34.5099C37.0193 33.7307 36.7973 33.3081 36.1853 33.3081C35.4623 33.3081 35.1563 33.6977 35.1563 34.7002V37.234H33.8193V30.584Z" fill="white"/>
<path d="M40.6026 31.6696H39.2686V30.584H40.6026V31.6696ZM39.2686 32.4218H40.6026V37.239H39.2686V32.4218Z" fill="white"/>
<path d="M48.8038 36.4868C48.5908 36.7728 48.3138 37.0048 47.9952 37.1643C47.6765 37.3238 47.325 37.4063 46.9688 37.4052C46.5207 37.4161 46.0754 37.3329 45.6613 37.161C45.2473 36.9891 44.8738 36.7323 44.5649 36.4071C44.2559 36.082 44.0183 35.6956 43.8675 35.2729C43.7166 34.8503 43.6557 34.4007 43.6888 33.953C43.6551 33.5027 43.7152 33.0503 43.8652 32.6244C44.0152 32.1985 44.2518 31.8085 44.5602 31.479C44.8685 31.1495 45.2418 30.8877 45.6564 30.7101C46.071 30.5326 46.5179 30.4433 46.9688 30.4477C47.6455 30.4091 48.3116 30.6289 48.8328 31.063C49.3539 31.497 49.6913 32.1128 49.7768 32.7862H48.3868C48.3322 32.4567 48.1564 32.1595 47.8939 31.9534C47.6314 31.7472 47.3014 31.647 46.9688 31.6726C45.6618 31.6726 45.1618 32.7862 45.1618 33.956C45.1618 35.1258 45.6618 36.1834 46.9688 36.1834C47.1707 36.2063 47.3751 36.1857 47.5684 36.1229C47.7617 36.0602 47.9394 35.9568 48.0895 35.8196C48.2396 35.6825 48.3587 35.5147 48.4388 35.3277C48.5189 35.1407 48.5581 34.9386 48.5538 34.7352H47.0808V33.6465H49.8888V37.238H48.9388L48.8038 36.4868Z" fill="white"/>
<path d="M50.9487 32.4216H52.1997V33.313C52.3252 33.0097 52.5372 32.7503 52.8091 32.567C53.0811 32.3837 53.4009 32.2847 53.7287 32.2824C53.8249 32.2711 53.9223 32.2907 54.0067 32.3385V33.5633C53.8504 33.5343 53.6924 33.5155 53.5337 33.5073C52.5607 33.5073 52.2267 34.2083 52.2267 35.0666V37.2379H50.8887V32.4206L50.9487 32.4216Z" fill="white"/>
<path d="M56.6993 32.2831C57.0357 32.2616 57.3728 32.3127 57.6879 32.4329C58.0029 32.5531 58.2886 32.7395 58.5255 32.9797C58.7625 33.2199 58.9452 33.5081 59.0615 33.8251C59.1777 34.142 59.2247 34.4802 59.1993 34.8169C59.2247 35.1536 59.1777 35.4918 59.0615 35.8088C58.9452 36.1257 58.7625 36.414 58.5255 36.6541C58.2886 36.8943 58.0029 37.0808 57.6879 37.2009C57.3728 37.3211 57.0357 37.3722 56.6993 37.3507C56.3641 37.3718 56.0283 37.3203 55.7148 37.1996C55.4013 37.0789 55.1174 36.892 54.8826 36.6515C54.6478 36.411 54.4675 36.1226 54.3541 35.806C54.2406 35.4894 54.1967 35.1521 54.2253 34.8169C54.1991 34.4823 54.2446 34.1459 54.3589 33.8304C54.4732 33.5149 54.6536 33.2275 54.8879 32.9875C55.1222 32.7475 55.405 32.5605 55.7175 32.439C56.0299 32.3175 56.3646 32.2643 56.6993 32.2831ZM56.6993 36.3763C57.5893 36.3763 57.8673 35.6241 57.8673 34.845C57.8673 34.0658 57.5893 33.2856 56.6993 33.2856C55.8093 33.2856 55.5313 34.0648 55.5313 34.845C55.5313 35.6251 55.8103 36.3763 56.6993 36.3763Z" fill="white"/>
<path d="M64.2891 37.2392H63.0381V36.5711H63.0101C62.856 36.8224 62.639 37.0291 62.3807 37.1707C62.1223 37.3122 61.8316 37.3838 61.5371 37.3784C60.1191 37.3784 59.7861 36.5992 59.7861 35.4014V32.4219H61.1201V35.15C61.1201 35.9292 61.3421 36.3518 61.9541 36.3518C62.6771 36.3518 62.9831 35.9622 62.9831 34.9597V32.4219H64.3171V37.2392H64.2891Z" fill="white"/>
<path d="M65.123 32.4221H66.374V33.035C66.5252 32.791 66.7394 32.5923 66.9938 32.46C67.2483 32.3276 67.5338 32.2664 67.82 32.2829C69.32 32.2829 70.02 33.5078 70.02 34.8718C70.0576 35.1764 70.0313 35.4854 69.943 35.7793C69.8547 36.0731 69.7062 36.3453 69.5071 36.5785C69.3079 36.8117 69.0624 37.0008 68.7862 37.1337C68.5101 37.2666 68.2093 37.3405 67.903 37.3506C67.6214 37.357 67.3424 37.2944 67.0903 37.1682C66.8383 37.042 66.6209 36.856 66.457 36.6265V38.9099H65.123V32.3931V32.4221ZM68.709 34.8448C68.709 34.0656 68.403 33.2854 67.541 33.2854C66.679 33.2854 66.401 34.0646 66.401 34.8448C66.401 35.625 66.707 36.3761 67.569 36.3761C68.431 36.3761 68.709 35.624 68.709 34.8448Z" fill="white"/>
<path d="M77.1335 32.8117C77.0688 32.4773 76.8882 32.1766 76.6236 31.9626C76.3591 31.7485 76.0275 31.635 75.6875 31.6419C74.3805 31.6419 73.8805 32.7556 73.8805 33.9254C73.8805 35.0951 74.3805 36.1527 75.6875 36.1527C75.8847 36.1535 76.0801 36.1152 76.2625 36.04C76.4448 35.9648 76.6105 35.8542 76.7499 35.7145C76.8894 35.5748 76.9998 35.4089 77.0749 35.2263C77.15 35.0437 77.1883 34.848 77.1875 34.6505H78.6075C78.5992 35.023 78.5166 35.3901 78.3646 35.7301C78.2125 36.0702 77.994 36.3763 77.722 36.6306C77.45 36.8848 77.13 37.0819 76.7807 37.2104C76.4315 37.3389 76.0601 37.396 75.6885 37.3786C75.2404 37.3894 74.7951 37.3063 74.3811 37.1344C73.967 36.9625 73.5935 36.7057 73.2846 36.3805C72.9756 36.0553 72.7381 35.669 72.5872 35.2463C72.4363 34.8236 72.3754 34.374 72.4085 33.9264C72.3748 33.476 72.4349 33.0236 72.5849 32.5977C72.7349 32.1719 72.9716 31.7818 73.2799 31.4523C73.5882 31.1228 73.9615 30.861 74.3761 30.6835C74.7907 30.506 75.2376 30.4166 75.6885 30.4211C76.3817 30.3747 77.066 30.5976 77.5993 31.0436C78.1325 31.4896 78.4735 32.1243 78.5515 32.8157L77.1335 32.8117Z" fill="white"/>
<path d="M81.6082 32.2831C81.9446 32.2616 82.2818 32.3127 82.5968 32.4329C82.9119 32.5531 83.1975 32.7395 83.4345 32.9797C83.6714 33.2199 83.8542 33.5081 83.9704 33.8251C84.0866 34.142 84.1336 34.4802 84.1082 34.8169C84.1176 35.1501 84.0603 35.4818 83.9395 35.7923C83.8187 36.1029 83.6369 36.3861 83.405 36.6251C83.173 36.8641 82.8955 37.054 82.589 37.1838C82.2824 37.3135 81.953 37.3803 81.6202 37.3803C81.2874 37.3803 80.958 37.3135 80.6514 37.1838C80.3449 37.054 80.0674 36.8641 79.8354 36.6251C79.6035 36.3861 79.4217 36.1029 79.3009 35.7923C79.1801 35.4818 79.1228 35.1501 79.1322 34.8169C79.106 34.4821 79.1516 34.1456 79.266 33.8299C79.3804 33.5142 79.5609 33.2267 79.7955 32.9867C80.03 32.7467 80.3131 32.5597 80.6258 32.4384C80.9384 32.317 81.2734 32.2641 81.6082 32.2831ZM81.6082 36.3763C82.4982 36.3763 82.7762 35.6241 82.7762 34.845C82.7762 34.0658 82.4982 33.2856 81.6082 33.2856C80.7182 33.2856 80.4402 34.0648 80.4402 34.845C80.4402 35.6251 80.7192 36.3763 81.6082 36.3763Z" fill="white"/>
<path d="M84.4447 32.4226H85.6987V33.0626C85.8562 32.8164 86.0746 32.6153 86.3327 32.4787C86.5909 32.3422 86.8799 32.2749 87.1717 32.2834C87.4622 32.2558 87.7541 32.3185 88.0078 32.463C88.2615 32.6074 88.4647 32.8265 88.5897 33.0906C88.7453 32.8468 88.9588 32.6454 89.2111 32.5046C89.4635 32.3637 89.7468 32.2877 90.0357 32.2834C90.2709 32.2506 90.5106 32.2724 90.7361 32.3471C90.9615 32.4219 91.1669 32.5475 91.3361 32.7144C91.5054 32.8813 91.634 33.085 91.7122 33.3096C91.7903 33.5343 91.8158 33.7739 91.7867 34.01V37.2399H90.4497V34.5108C90.4497 33.8708 90.3937 33.341 89.6437 33.341C88.8937 33.341 88.7537 33.9539 88.7537 34.5658V37.2389H87.4187V34.5348C87.4187 33.9779 87.4467 33.333 86.6127 33.333C86.3627 33.333 85.7227 33.5002 85.7227 34.4467V37.2589H84.3887V32.4416L84.4447 32.4226Z" fill="white"/>
<path d="M92.5625 32.4221H93.8135V33.035C93.9647 32.791 94.1788 32.5923 94.4333 32.46C94.6878 32.3276 94.9732 32.2664 95.2595 32.2829C96.7595 32.2829 97.4595 33.5078 97.4595 34.8718C97.497 35.1764 97.4708 35.4854 97.3825 35.7793C97.2942 36.0731 97.1457 36.3453 96.9465 36.5785C96.7473 36.8117 96.5019 37.0008 96.2257 37.1337C95.9495 37.2666 95.6487 37.3405 95.3425 37.3506C95.0608 37.357 94.7818 37.2944 94.5298 37.1682C94.2778 37.042 94.0604 36.856 93.8965 36.6265V38.9099H92.5625V32.3931V32.4221ZM96.1485 34.8448C96.1485 34.0656 95.8425 33.2854 94.9805 33.2854C94.1185 33.2854 93.8405 34.0646 93.8405 34.8448C93.8405 35.625 94.1465 36.3761 95.0085 36.3761C95.8705 36.3761 96.1485 35.624 96.1485 34.8448Z" fill="white"/>
<path d="M98.011 33.8957C98.094 32.6708 99.211 32.2812 100.263 32.2812C101.236 32.2812 102.376 32.5036 102.376 33.6453V36.1491C102.356 36.5186 102.413 36.8883 102.543 37.2347H101.208C101.151 37.0834 101.123 36.9227 101.125 36.761C100.911 36.9639 100.657 37.1205 100.38 37.2211C100.102 37.3217 99.8074 37.3642 99.513 37.3459C98.596 37.3459 97.873 36.9002 97.873 35.8977C97.873 33.6944 101.126 34.8672 101.073 33.8096C101.073 33.2527 100.684 33.1696 100.211 33.1696C99.711 33.1696 99.377 33.3649 99.349 33.8937L98.011 33.8957ZM101.069 34.8702C100.847 35.0655 100.369 35.0655 99.957 35.1486C99.545 35.2317 99.179 35.3709 99.179 35.8496C99.179 36.3284 99.568 36.4626 99.985 36.4626C100.134 36.4774 100.283 36.4586 100.424 36.4075C100.564 36.3563 100.691 36.2742 100.795 36.1672C100.899 36.0602 100.978 35.9311 101.025 35.7894C101.073 35.6477 101.088 35.4972 101.069 35.3489V34.8481V34.8702Z" fill="white"/>
<path d="M103.239 32.4216H104.49V33.0936H104.518C104.672 32.8423 104.889 32.6357 105.147 32.4941C105.406 32.3526 105.697 32.281 105.991 32.2864C107.409 32.2864 107.742 33.0656 107.742 34.2634V37.2429H106.408V34.5098C106.408 33.7306 106.186 33.308 105.574 33.308C104.851 33.308 104.545 33.6976 104.545 34.7001V37.2339H103.211V32.4166L103.239 32.4216Z" fill="white"/>
<path d="M110.939 37.8518C110.842 38.2056 110.618 38.5114 110.311 38.7114C110.004 38.9114 109.634 38.9918 109.271 38.9374C109.001 38.9465 108.731 38.9277 108.465 38.8814V37.7957C108.723 37.8292 108.983 37.848 109.243 37.8518C109.391 37.8364 109.526 37.7633 109.619 37.6485C109.713 37.5337 109.758 37.3864 109.743 37.2389C109.752 37.1336 109.733 37.0279 109.687 36.9324L107.987 32.3936H109.412L110.496 35.7066L111.552 32.3936H112.912L110.912 37.8228L110.939 37.8518Z" fill="white"/>
<path d="M11.3841 14.129H18.8621C18.3355 15.9905 17.1673 17.6048 15.5649 18.6855C13.9625 19.7661 12.0296 20.2432 10.1094 20.0319C8.18912 19.8206 6.40573 18.9347 5.07581 17.5314C3.74589 16.1282 2.95549 14.2983 2.84493 12.3668C2.73437 10.4352 3.3108 8.52686 4.47189 6.98057C5.63299 5.43429 7.30361 4.35007 9.18719 3.92042C11.0708 3.49076 13.0454 3.74345 14.7606 4.63364C16.4758 5.52383 17.8206 6.99392 18.5561 8.78292H20.7801C20.2055 6.97426 19.142 5.36027 17.7075 4.11984C16.2731 2.87942 14.5237 2.061 12.6533 1.7553C10.7829 1.44959 8.86449 1.66854 7.11071 2.38788C5.35693 3.10722 3.83628 4.29885 2.71729 5.8307C1.5983 7.36255 0.924672 9.17479 0.771073 11.0666C0.617473 12.9584 0.989898 14.8558 1.84707 16.5486C2.70424 18.2414 4.01269 19.6634 5.62738 20.6571C7.24208 21.6507 9.09996 22.1772 10.9951 22.1782C12.5445 22.1693 14.0713 21.806 15.4591 21.1158C16.8468 20.4257 18.0587 19.427 19.0021 18.1962V21.7325H20.8921V12.0679H11.3841V14.128V14.129Z" fill="white"/>
<path d="M26.4242 2.26758H24.3672V21.73H26.4242V2.26758Z" fill="white"/>
<path d="M86.891 2.26758H84.834V21.73H86.891V2.26758Z" fill="white"/>
<path d="M37.0705 20.337C35.5486 20.2971 34.1024 19.6635 33.0401 18.5714C31.9778 17.4793 31.3833 16.0148 31.3833 14.4901C31.3833 12.9654 31.9778 11.501 33.0401 10.4088C34.1024 9.31669 35.5486 8.68318 37.0705 8.64328C38.5923 8.68318 40.0385 9.31669 41.1008 10.4088C42.1631 11.501 42.7576 12.9654 42.7576 14.4901C42.7576 16.0148 42.1631 17.4793 41.1008 18.5714C40.0385 19.6635 38.5923 20.2971 37.0705 20.337ZM37.0705 6.69434C35.5365 6.69434 34.0369 7.14991 32.7615 8.00344C31.486 8.85697 30.4919 10.0701 29.9048 11.4895C29.3178 12.9089 29.1642 14.4707 29.4635 15.9775C29.7628 17.4843 30.5014 18.8684 31.5861 19.9547C32.6708 21.041 34.0528 21.7808 35.5573 22.0806C37.0619 22.3803 38.6213 22.2265 40.0385 21.6385C41.4558 21.0506 42.6671 20.055 43.5193 18.7776C44.3716 17.5002 44.8265 15.9984 44.8265 14.4621C44.8193 12.4041 43.9999 10.4325 42.5469 8.97733C41.0939 7.52214 39.1253 6.70146 37.0705 6.69434Z" fill="white"/>
<path d="M54.9748 20.3379C53.8141 20.3658 52.6714 20.0465 51.6928 19.4209C50.7141 18.7953 49.9438 17.8918 49.4803 16.8257C49.0168 15.7596 48.8811 14.5793 49.0906 13.4356C49.3 12.2919 49.8451 11.2367 50.6562 10.4047C51.4672 9.57275 52.5075 9.00178 53.6442 8.76473C54.7808 8.52767 55.9622 8.63531 57.0375 9.07388C58.1127 9.51245 59.0331 10.2621 59.6809 11.227C60.3288 12.1919 60.6748 13.3283 60.6748 14.4911C60.6777 16.0189 60.0825 17.4869 59.0168 18.5801C57.9511 19.6732 56.4999 20.3043 54.9748 20.3379ZM55.0588 6.55506C53.9643 6.5512 52.8818 6.78245 51.8842 7.2332C50.8866 7.68395 49.9971 8.34372 49.2758 9.16801V2.26758H47.2188V21.73H49.2758V19.7841C49.9989 20.6062 50.8888 21.2646 51.8859 21.7153C52.8831 22.166 53.9647 22.3988 55.0588 22.398C57.1411 22.3746 59.1302 21.5297 60.5944 20.0466C62.0586 18.5636 62.8798 16.5621 62.8798 14.4765C62.8798 12.3909 62.0586 10.3894 60.5944 8.90643C59.1302 7.42342 57.1411 6.57851 55.0588 6.55506Z" fill="white"/>
<path d="M73.4636 20.3383C72.3068 20.3634 71.1687 20.0429 70.1945 19.4177C69.2202 18.7925 68.4539 17.891 67.9932 16.8279C67.5326 15.7649 67.3984 14.5886 67.6078 13.4489C67.8172 12.3092 68.3607 11.2578 69.169 10.4286C69.9773 9.59949 71.0139 9.03018 72.1465 8.79327C73.2791 8.55635 74.4565 8.66258 75.5287 9.0984C76.6008 9.53422 77.5191 10.2799 78.1664 11.2404C78.8138 12.2009 79.1609 13.3326 79.1636 14.4915C79.1665 16.0193 78.5713 17.4873 77.5056 18.5805C76.4399 19.6736 74.9887 20.3048 73.4636 20.3383ZM79.1906 9.22751C78.1232 8.0307 76.7181 7.18678 75.1613 6.80747C73.6045 6.42817 71.9693 6.53138 70.4723 7.10343C68.9753 7.67548 67.6871 8.6894 66.7783 10.0109C65.8695 11.3325 65.3828 12.8993 65.3828 14.504C65.3828 16.1087 65.8695 17.6755 66.7783 18.997C67.6871 20.3186 68.9753 21.3325 70.4723 21.9045C71.9693 22.4766 73.6045 22.5798 75.1613 22.2005C76.7181 21.8212 78.1232 20.9773 79.1906 19.7805V21.7574H81.2476V7.47486H79.1906V9.20047V9.22751Z" fill="white"/>
<path d="M144.383 0.291016H140.741V3.74323H144.383V0.291016Z" fill="white"/>
<path d="M94.1739 2.26758H90.8379V21.73H101.738V18.6113H94.1739V2.26758Z" fill="white"/>
<path d="M144.383 6.41602H140.741V21.7021H144.383V6.41602Z" fill="white"/>
<path d="M110.966 19.0849C109.758 19.0384 108.617 18.5142 107.794 17.6271C106.97 16.74 106.531 15.5622 106.573 14.3517C106.538 13.7524 106.626 13.1522 106.831 12.588C107.036 12.0239 107.354 11.5076 107.765 11.0708C108.176 10.6341 108.672 10.2862 109.223 10.0484C109.773 9.81054 110.366 9.68786 110.966 9.68786C111.565 9.68786 112.158 9.81054 112.709 10.0484C113.259 10.2862 113.755 10.6341 114.167 11.0708C114.578 11.5076 114.896 12.0239 115.101 12.588C115.306 13.1522 115.393 13.7524 115.358 14.3517C115.4 15.5622 114.961 16.74 114.138 17.6271C113.315 18.5142 112.175 19.0384 110.966 19.0849ZM110.965 6.38867C109.387 6.38867 107.845 6.85734 106.532 7.73541C105.22 8.61348 104.198 9.86152 103.594 11.3217C102.99 12.7819 102.832 14.3886 103.14 15.9387C103.448 17.4889 104.207 18.9127 105.323 20.0303C106.439 21.1479 107.861 21.9089 109.409 22.2173C110.956 22.5256 112.561 22.3674 114.019 21.7625C115.477 21.1577 116.723 20.1335 117.6 18.8194C118.476 17.5052 118.944 15.9602 118.944 14.3798C118.944 12.2606 118.104 10.2281 116.608 8.72956C115.112 7.23097 113.081 6.38894 110.965 6.38867Z" fill="white"/>
<path d="M159.506 16.495C159.167 17.2639 158.615 17.9193 157.915 18.3831C157.216 18.847 156.398 19.1 155.558 19.112C154.35 19.0656 153.209 18.5414 152.386 17.6542C151.562 16.7671 151.124 15.5893 151.165 14.3788C151.08 13.3697 151.348 12.3622 151.923 11.5291C152.498 10.696 153.345 10.0892 154.318 9.81277C155.29 9.5363 156.329 9.60736 157.255 10.0138C158.182 10.4202 158.938 11.1366 159.394 12.0403H163.203C162.634 10.2113 161.425 8.64943 159.798 7.64152C158.171 6.63362 156.235 6.24729 154.347 6.55349C152.458 6.85969 150.744 7.83785 149.517 9.30838C148.291 10.7789 147.636 12.6431 147.671 14.5587C147.707 16.4743 148.431 18.3127 149.712 19.7364C150.992 21.1601 152.742 22.0735 154.64 22.3089C156.539 22.5444 158.459 22.086 160.047 21.018C161.635 19.95 162.785 18.3441 163.286 16.495H159.534H159.506Z" fill="white"/>
<path d="M128.675 27.0205C127.87 27.0039 127.08 26.8018 126.366 26.4299C125.651 26.0581 125.032 25.5264 124.556 24.8763L121.336 26.4386C122.11 27.6819 123.194 28.7025 124.48 29.4005C125.767 30.0985 127.212 30.45 128.675 30.4206C130.701 30.4061 132.65 29.6363 134.14 28.2614C135.631 26.8864 136.557 25.0049 136.738 22.9834H133.096C132.972 24.0782 132.456 25.0909 131.643 25.8334C130.83 26.5758 129.775 26.9977 128.675 27.0205Z" fill="white"/>
<path d="M128.842 19.1352C127.638 19.0906 126.5 18.5706 125.677 17.6887C124.854 16.8068 124.413 15.6347 124.449 14.4281C124.414 13.8288 124.502 13.2286 124.707 12.6645C124.912 12.1003 125.23 11.584 125.641 11.1473C126.052 10.7105 126.548 10.3626 127.099 10.1248C127.649 9.88695 128.242 9.76428 128.842 9.76428C129.441 9.76428 130.034 9.88695 130.585 10.1248C131.135 10.3626 131.631 10.7105 132.043 11.1473C132.454 11.584 132.772 12.1003 132.977 12.6645C133.182 13.2286 133.269 13.8288 133.234 14.4281C133.271 15.6347 132.83 16.8068 132.007 17.6887C131.184 18.5706 130.046 19.0906 128.841 19.1352M133.512 7.99841C132.072 6.95488 130.323 6.42686 128.546 6.49925C126.77 6.57165 125.069 7.24025 123.718 8.39755C122.367 9.55486 121.444 11.1336 121.097 12.88C120.75 14.6263 120.999 16.4388 121.805 18.0259C122.611 19.6131 123.926 20.8827 125.54 21.6306C127.153 22.3786 128.971 22.5613 130.701 22.1496C132.43 21.7378 133.972 20.7554 135.077 19.3604C136.181 17.9654 136.786 16.2387 136.792 14.4582V6.41602H133.512V7.99841Z" fill="white"/>
<path d="M166.318 3.74372C166.311 3.45532 166.362 3.16843 166.468 2.90021C166.574 2.63198 166.733 2.38793 166.936 2.18263C167.138 1.97733 167.38 1.815 167.646 1.70534C167.912 1.59568 168.198 1.54094 168.486 1.54439C168.774 1.53844 169.06 1.59181 169.326 1.7012C169.593 1.8106 169.834 1.97367 170.035 2.1803C170.235 2.38693 170.392 2.6327 170.494 2.90234C170.596 3.17198 170.641 3.45973 170.627 3.74773C170.638 4.035 170.591 4.32148 170.488 4.58982C170.385 4.85815 170.228 5.10274 170.028 5.30876C169.828 5.51478 169.588 5.67794 169.323 5.78835C169.058 5.89875 168.773 5.95411 168.486 5.95106C168.198 5.95455 167.911 5.89957 167.644 5.78941C167.377 5.67926 167.135 5.51621 166.933 5.31004C166.73 5.10388 166.571 4.85887 166.466 4.5897C166.36 4.32054 166.31 4.03279 166.318 3.74372ZM170.294 3.74372C170.308 3.49729 170.272 3.25056 170.188 3.01864C170.103 2.78673 169.973 2.57452 169.803 2.39502C169.634 2.21553 169.43 2.07253 169.204 1.9748C168.978 1.87707 168.734 1.82665 168.487 1.82665C168.241 1.82665 167.997 1.87707 167.771 1.9748C167.544 2.07253 167.34 2.21553 167.171 2.39502C167.002 2.57452 166.871 2.78673 166.787 3.01864C166.702 3.25056 166.666 3.49729 166.68 3.74372C166.669 3.98854 166.707 4.23315 166.793 4.46276C166.878 4.69236 167.009 4.90217 167.178 5.07951C167.347 5.25684 167.55 5.398 167.775 5.49445C168 5.5909 168.243 5.64063 168.487 5.64063C168.732 5.64063 168.974 5.5909 169.199 5.49445C169.424 5.398 169.627 5.25684 169.796 5.07951C169.965 4.90217 170.096 4.69236 170.182 4.46276C170.268 4.23315 170.306 3.98854 170.294 3.74372ZM167.625 2.5419H168.709C168.803 2.53217 168.898 2.54212 168.988 2.57112C169.078 2.60012 169.161 2.64754 169.232 2.71037C169.302 2.77319 169.359 2.85005 169.398 2.93605C169.438 3.02205 169.459 3.11531 169.46 3.20991C169.466 3.3454 169.421 3.47814 169.333 3.58144C169.245 3.68474 169.122 3.75095 168.987 3.76675C169.102 3.78908 169.204 3.85209 169.275 3.94414C169.347 4.03619 169.383 4.15106 169.376 4.26751C169.404 4.60202 169.404 4.82435 169.487 4.8524L169.042 4.88044C168.986 4.8524 168.959 4.60202 168.959 4.3236C168.959 4.07322 168.792 3.93401 168.514 3.93401H168.097V4.88044H167.652V2.54691L167.625 2.5419ZM168.07 3.5995H168.598C168.848 3.5995 168.987 3.46029 168.987 3.265C168.987 3.0697 168.848 2.93049 168.598 2.93049H168.07V3.5995Z" fill="white"/>
</svg>
