<svg width="206" height="40" viewBox="0 0 206 40" fill="none" xmlns="http://www.w3.org/2000/svg">
<path fill-rule="evenodd" clip-rule="evenodd" d="M195.512 22.2753V22.6419C195.465 23.1231 195.524 23.6089 195.686 24.0645C195.848 24.5202 196.108 24.9346 196.447 25.2783C196.787 25.6219 197.198 25.8864 197.651 26.0528C198.105 26.2193 198.589 26.2836 199.07 26.2413C199.812 26.2424 200.543 26.0582 201.196 25.7055C201.849 25.3528 202.404 24.8427 202.811 24.2212L204.755 26.4246C204.039 27.3321 203.115 28.053 202.062 28.5263C201.008 28.9995 199.856 29.211 198.703 29.1427C194.375 29.1427 191.803 26.0941 191.803 21.3559C191.803 16.6177 194.297 13.6442 198.588 13.6442C203.173 13.6442 205.263 17.0604 205.263 21.1005V22.3124H195.544L195.512 22.2753ZM201.49 19.7775C201.49 17.7204 200.463 16.3243 198.59 16.3243C198.152 16.3252 197.72 16.4179 197.32 16.5962C196.92 16.7745 196.562 17.0346 196.268 17.3598C195.975 17.685 195.753 18.0681 195.616 18.4845C195.479 18.9008 195.43 19.3413 195.473 19.7775V19.9979H201.451V19.7375L201.49 19.7775ZM184.766 26.2052C185.465 26.223 186.149 26.0042 186.708 25.5842C187.267 25.1642 187.669 24.5675 187.847 23.8907L190.598 25.2127C190.198 26.4225 189.409 27.465 188.353 28.1763C187.297 28.8877 186.036 29.2276 184.766 29.1427C180.438 29.1427 178.018 26.1311 178.018 21.3559C178.018 16.5807 180.439 13.6442 184.766 13.6442C186.002 13.5572 187.233 13.8757 188.272 14.5518C189.311 15.2278 190.101 16.2245 190.524 17.3909L187.59 18.7129C187.458 18.0792 187.105 17.5133 186.594 17.1163C186.084 16.7192 185.449 16.517 184.803 16.5456C182.822 16.5456 181.796 17.9778 181.796 20.0349V22.753C181.796 24.8101 182.786 26.2062 184.803 26.2062L184.766 26.2052ZM171.929 19.7775C171.929 17.6834 171.229 16.5817 169.508 16.5817C168.041 16.5817 166.608 17.3899 166.608 18.9693V28.7771H163.014V13.9737H166.608V16.4325H166.755C167.031 15.5725 167.584 14.8284 168.328 14.3167C169.071 13.805 169.963 13.5544 170.863 13.6042C173.87 13.6042 175.558 15.6984 175.558 19.408V28.7741H171.964V19.7775H171.929ZM155.901 26.2423H155.718C155.241 28.1522 153.627 29.1467 151.464 29.1467C148.493 29.1467 146.806 27.4201 146.806 24.7761C146.806 21.7275 149.08 20.2212 153.041 20.2212H155.535V19.1526C155.535 17.5001 154.728 16.5486 152.821 16.5486C152.149 16.5351 151.485 16.7015 150.898 17.0307C150.311 17.3599 149.823 17.84 149.483 18.4215L147.356 16.4745C148.42 14.785 150.143 13.6463 153.078 13.6463C157.039 13.6463 159.13 15.5561 159.13 18.9352V25.9148H160.597V28.8192H158.616C157.918 28.8299 157.244 28.5671 156.737 28.0868C156.23 27.6065 155.93 26.9467 155.902 26.2483L155.901 26.2423ZM155.571 22.4225H153.26C151.39 22.4225 150.473 23.0835 150.473 24.2593V24.737C150.473 25.9489 151.28 26.5397 152.673 26.5397C154.287 26.5397 155.573 25.8046 155.573 24.4095V22.4586L155.571 22.4225ZM140.79 19.8186C140.79 17.7244 140.09 16.6228 138.369 16.6228C136.869 16.6228 135.469 17.431 135.469 19.0104V28.8182H131.883V13.9737H135.477V16.4325H135.624C135.9 15.5725 136.453 14.8284 137.197 14.3167C137.94 13.805 138.832 13.5544 139.732 13.6042C142.739 13.6042 144.427 15.6984 144.427 19.408V28.7741H140.833V19.7775L140.79 19.8186ZM126.451 11.8435C124.984 11.8435 124.36 11.0724 124.36 10.0068V9.45592C124.36 8.39031 124.983 7.61914 126.451 7.61914C127.919 7.61914 128.542 8.39031 128.542 9.45592V10.0068C128.541 11.0724 127.883 11.8435 126.451 11.8435ZM126.451 14.0108H128.251V28.8512H124.654V17.3529H121.059V14.0108H126.451ZM111.303 17.8346H119.042V21.1776H111.303V28.8893H107.603V9.52903H120.183V12.8721H111.303V17.7945V17.8346ZM98.7972 29.364C97.9101 29.3916 97.0379 29.131 96.3109 28.6213C95.5838 28.1115 95.0409 27.3799 94.7632 26.5357H94.6532V34.6901H91.0582V14.121H94.6522V16.5817H94.7622C95.0422 15.7417 95.5868 15.0155 96.3143 14.5121C97.0417 14.0088 97.9127 13.7555 98.7962 13.7905C102.496 13.7905 104.554 16.5817 104.554 21.5021C104.554 26.4226 102.5 29.2889 98.7962 29.2889L98.7972 29.364ZM100.778 20.3284C100.824 19.8868 100.776 19.4405 100.639 19.0185C100.501 18.5965 100.276 18.2083 99.9782 17.8792C99.6807 17.5501 99.3174 17.2874 98.9118 17.1082C98.5062 16.9289 98.0675 16.8373 97.6242 16.8391C95.9002 16.8391 94.6172 17.7945 94.6172 19.2267V23.9288C94.6172 25.4711 95.9012 26.3535 97.6242 26.3535C98.0647 26.3565 98.5008 26.2668 98.9045 26.0904C99.3082 25.9139 99.6704 25.6545 99.9677 25.3291C100.265 25.0036 100.491 24.6192 100.63 24.2008C100.77 23.7824 100.82 23.3393 100.778 22.9002V20.3284ZM83.9432 26.4626H83.7602C83.2832 28.3725 81.6692 29.367 79.5062 29.367C76.5352 29.367 74.8482 27.6404 74.8482 24.9964C74.8472 21.9408 77.1212 20.4385 81.0832 20.4385H83.5772V19.3729C83.5772 17.7204 82.7702 16.769 80.8632 16.769C80.1913 16.7548 79.5278 16.9203 78.9411 17.2484C78.3544 17.5766 77.8656 18.0555 77.5252 18.6358L75.3982 16.6889C76.4622 14.9993 78.1852 13.8606 81.1202 13.8606C85.0812 13.8606 87.1722 15.7705 87.1722 19.1496V26.1291H88.6392V29.0335H86.6572C85.9594 29.0443 85.2849 28.7815 84.7779 28.3011C84.2708 27.8208 83.9713 27.1611 83.9432 26.4626ZM83.6132 22.6419H81.3022C79.4322 22.6419 78.5152 23.3029 78.5152 24.4786V24.9564C78.5152 26.1321 79.3222 26.7591 80.7152 26.7591C82.3292 26.7591 83.6152 26.024 83.6152 24.6289V22.6789L83.6132 22.6419ZM63.5132 22.8992C63.4661 23.3805 63.5255 23.8663 63.6871 24.3219C63.8487 24.7776 64.1086 25.192 64.4483 25.5357C64.788 25.8793 65.1991 26.1438 65.6525 26.3102C66.1058 26.4767 66.5902 26.541 67.0712 26.4987C67.8132 26.4997 68.5439 26.3156 69.197 25.9629C69.8502 25.6102 70.4053 25.1001 70.8122 24.4786L72.7562 26.682C72.0404 27.5894 71.1164 28.3104 70.0627 28.7837C69.0091 29.2569 67.8569 29.4683 66.7042 29.4001C62.3762 29.4001 59.8042 26.3515 59.8042 21.6133C59.8042 16.8751 62.2982 13.9016 66.5892 13.9016C71.1742 13.9016 73.2642 17.3178 73.2642 21.395V22.6068H63.5512V22.9744L63.5132 22.8992ZM69.4912 20.2953V20.0379C69.4912 17.9808 68.4642 16.5847 66.5912 16.5847C66.1537 16.5861 65.7214 16.679 65.3219 16.8575C64.9224 17.036 64.5646 17.2962 64.2714 17.6213C63.9782 17.9465 63.7561 18.3294 63.6193 18.7456C63.4825 19.1617 63.4341 19.6019 63.4772 20.0379V20.2582H69.4552L69.4912 20.2953ZM46.5332 9.78642H50.2332V25.7275H57.9332V29.0706H46.5332V9.78642Z" fill="white"/>
<path fill-rule="evenodd" clip-rule="evenodd" d="M31.2392 30.503C27.3859 34.0357 23.0518 37.0031 18.3662 39.3163L17.7792 39.6098C17.5903 39.7004 17.3836 39.7475 17.1742 39.7475C16.9648 39.7475 16.758 39.7004 16.5692 39.6098L15.9822 39.3163C11.2966 37.0031 6.9624 34.0357 3.10917 30.503C2.40027 29.8561 1.83479 29.0674 1.44929 28.188C1.06379 27.3085 0.866836 26.3578 0.871166 25.3973V10.4848C0.870024 10.3613 0.882432 10.238 0.908166 10.1172C0.871479 9.91084 0.871479 9.69962 0.908166 9.49326C0.951467 9.29398 1.04015 9.10741 1.16729 8.94811C1.29444 8.78881 1.45661 8.66107 1.64117 8.57487L16.5322 0.4566C16.7352 0.34789 16.9619 0.291016 17.1922 0.291016C17.4224 0.291016 17.6491 0.34789 17.8522 0.4566L30.1712 7.17876L32.7712 8.61093C32.9896 8.72989 33.1726 8.90473 33.3015 9.11761C33.4304 9.33049 33.5007 9.57381 33.5052 9.82276V25.4344C33.5063 26.3945 33.308 27.3445 32.9229 28.2238C32.5378 29.1031 31.9743 29.8926 31.2682 30.5421L31.2392 30.503ZM4.93917 28.4459C8.60342 31.7919 12.7149 34.6109 17.1552 36.8216C21.6084 34.633 25.7228 31.812 29.3712 28.4459C29.7931 28.0574 30.1311 27.5865 30.3645 27.0622C30.5979 26.5379 30.7217 25.9713 30.7282 25.3973V11.9169L27.4982 13.3861V21.1369C27.4997 21.785 27.3672 22.4264 27.109 23.0207C26.8509 23.615 26.4726 24.1493 25.9982 24.5901C23.6483 26.7504 21.0059 28.568 18.1492 29.9892L17.8192 30.1725C17.6303 30.2632 17.4236 30.3102 17.2142 30.3102C17.0048 30.3102 16.798 30.2632 16.6092 30.1725L16.2792 29.9892C13.4147 28.5811 10.7706 26.7623 8.43017 24.5901C7.95859 24.1471 7.58231 23.6123 7.32438 23.0185C7.06645 22.4247 6.9323 21.7844 6.93017 21.1369V13.3861L3.69517 11.954V25.4344C3.68961 26.0103 3.80793 26.5807 4.04209 27.1067C4.27624 27.6327 4.62074 28.1021 5.05217 28.483L4.93917 28.4459ZM17.0092 17.8679C16.8718 17.848 16.7374 17.811 16.6092 17.7578L9.56317 14.598V21.0998C9.56086 21.3689 9.61514 21.6355 9.72247 21.8823C9.82981 22.129 9.9878 22.3504 10.1862 22.532C12.2347 24.3976 14.5152 25.9905 16.9712 27.2711V17.8679H17.0092ZM17.1562 3.21177L5.30917 9.67654L17.1552 14.9655L28.9652 9.63948L28.8182 9.56637L17.1552 3.17471L17.1562 3.21177Z" fill="white"/>
</svg>
