<svg width="90" height="29" viewBox="0 0 90 29" fill="none" xmlns="http://www.w3.org/2000/svg">
<path d="M89.3885 9.16699C88.9769 7.99963 88.2141 6.98874 87.2051 6.27348C86.1962 5.55821 84.9906 5.17373 83.7545 5.17295H83.7075C82.9052 5.16834 82.1106 5.32881 81.3728 5.64442C80.635 5.96004 79.9699 6.42406 79.4185 7.00772C78.8643 6.42772 78.1986 5.96613 77.4615 5.6508C76.7243 5.33546 75.9311 5.17291 75.1295 5.17295H75.0835C73.6525 5.16576 72.2673 5.6773 71.1835 6.61313V6.14842C71.1652 5.92703 71.0644 5.72062 70.9012 5.57016C70.738 5.4197 70.5243 5.33619 70.3025 5.33619H66.3185C66.0848 5.33619 65.8608 5.42915 65.6955 5.59462C65.5303 5.76009 65.4375 5.98452 65.4375 6.21853V27.9294C65.4375 28.1634 65.5303 28.3878 65.6955 28.5533C65.8608 28.7187 66.0848 28.8117 66.3185 28.8117H70.3065C70.5189 28.8134 70.7244 28.7359 70.883 28.5943C71.0416 28.4527 71.1419 28.2571 71.1645 28.0455V12.3017C71.1933 11.9502 71.3473 11.6207 71.5984 11.3734C71.8495 11.1262 72.1811 10.9775 72.5325 10.9547H73.2775C73.5837 10.9699 73.8766 11.0841 74.1125 11.2802C74.2837 11.4203 74.4206 11.5977 74.513 11.7988C74.6054 12 74.6507 12.2196 74.6455 12.4409V27.9574C74.6505 28.1931 74.7475 28.4175 74.9157 28.5825C75.084 28.7474 75.3101 28.8398 75.5455 28.8397H79.5335C79.7589 28.8384 79.9753 28.7512 80.1389 28.5959C80.3025 28.4406 80.4011 28.2288 80.4145 28.0035V12.4409C80.4099 12.1943 80.4668 11.9505 80.5802 11.7315C80.6935 11.5126 80.8596 11.3254 81.0635 11.187C81.2885 11.047 81.5421 10.9597 81.8055 10.9317H82.5475C82.927 10.9491 83.2847 11.1141 83.5445 11.3917C83.8043 11.6693 83.9457 12.0375 83.9385 12.4179V27.9063C83.9435 28.1421 84.0405 28.3665 84.2087 28.5314C84.377 28.6964 84.6031 28.7887 84.8385 28.7887H88.8265C89.0602 28.7887 89.2842 28.6957 89.4495 28.5302C89.6147 28.3648 89.7075 28.1403 89.7075 27.9063V11.2571C89.7395 10.5402 89.6378 9.82355 89.4075 9.14395" fill="white"/>
<path d="M62.3773 5.40482H60.1053V1.6892C60.1059 1.58227 60.0854 1.47627 60.0448 1.37736C60.0042 1.27845 59.9444 1.1886 59.8689 1.11303C59.7933 1.03746 59.7035 0.97768 59.6047 0.937157C59.5059 0.896634 59.4 0.876177 59.2933 0.876976H59.1313C56.6043 1.57804 57.1143 5.08333 52.4773 5.38379H51.8553C51.659 5.42709 51.4831 5.53552 51.356 5.69148C51.229 5.84745 51.1582 6.04182 51.1553 6.24309V10.2351C51.1553 10.4691 51.2481 10.6936 51.4133 10.859C51.5785 11.0245 51.8026 11.1175 52.0363 11.1175H54.4473V28.0681C54.4459 28.2985 54.5351 28.5203 54.6957 28.6854C54.8562 28.8505 55.0752 28.9457 55.3053 28.9504H59.2473C59.4809 28.9504 59.705 28.8575 59.8702 28.692C60.0355 28.5265 60.1283 28.3021 60.1283 28.0681V11.1175H62.3773C62.6109 11.1175 62.835 11.0245 63.0002 10.859C63.1655 10.6936 63.2583 10.4691 63.2583 10.2351V6.24108C63.2583 6.00707 63.1655 5.78265 63.0002 5.61718C62.835 5.45171 62.6109 5.35875 62.3773 5.35875" fill="white"/>
<path d="M48.0257 5.4043H44.0377C43.8041 5.4043 43.58 5.49726 43.4147 5.66273C43.2495 5.8282 43.1567 6.05262 43.1567 6.28663V14.5531C43.1559 14.7991 43.058 15.0348 42.8843 15.2087C42.7106 15.3827 42.4753 15.4807 42.2297 15.4815H40.5607C40.3151 15.4807 40.0798 15.3827 39.9061 15.2087C39.7324 15.0348 39.6345 14.7991 39.6337 14.5531V6.30967C39.6287 6.07392 39.5317 5.84952 39.3635 5.68457C39.1952 5.51963 38.9691 5.42728 38.7337 5.42733H34.7407C34.507 5.42733 34.283 5.52029 34.1177 5.68576C33.9525 5.85123 33.8597 6.07566 33.8597 6.30967V15.3694C33.8295 16.152 33.9611 16.9324 34.2464 17.6617C34.5317 18.391 34.9644 19.0533 35.5173 19.6071C36.0703 20.161 36.7317 20.5943 37.4598 20.88C38.188 21.1657 38.9672 21.2975 39.7487 21.2673H42.4197C42.6472 21.2913 42.858 21.3981 43.0121 21.5674C43.1662 21.7368 43.2529 21.9568 43.2557 22.1859C43.2586 22.415 43.1774 22.6372 43.0275 22.8103C42.8776 22.9834 42.6695 23.0954 42.4427 23.1251H36.5257C36.2903 23.1301 36.0663 23.2272 35.9016 23.3957C35.7369 23.5642 35.6447 23.7907 35.6447 24.0264V28.0205C35.6447 28.2545 35.7375 28.4789 35.9027 28.6444C36.068 28.8099 36.292 28.9028 36.5257 28.9028H43.0407C43.8222 28.9331 44.6014 28.8012 45.3296 28.5155C46.0577 28.2299 46.7191 27.7965 47.2721 27.2427C47.8251 26.6888 48.2578 26.0265 48.543 25.2973C48.8283 24.568 48.9599 23.7875 48.9297 23.0049V6.28663C48.9297 6.05262 48.8369 5.8282 48.6717 5.66273C48.5064 5.49726 48.2824 5.4043 48.0487 5.4043" fill="white"/>
<path d="M9.37498 12.7195V15.1812C9.37419 15.4272 9.27627 15.6628 9.10259 15.8368C8.92892 16.0107 8.69359 16.1088 8.44798 16.1096H5.91998V11.1631H8.44698C8.69259 11.1639 8.92792 11.262 9.10159 11.4359C9.27527 11.6098 9.37319 11.8455 9.37398 12.0915V12.6924L9.37498 12.7195ZM9.72298 5.40841H1.00498C0.892567 5.40814 0.781204 5.43006 0.677249 5.4729C0.573293 5.51574 0.478781 5.57867 0.399108 5.65809C0.319436 5.73751 0.256163 5.83187 0.212902 5.93578C0.169642 6.03969 0.147241 6.15112 0.146978 6.2637V10.1886V27.9525C0.139358 28.1768 0.220154 28.395 0.371906 28.5601C0.523658 28.7252 0.73418 28.8239 0.957978 28.8348H5.01598C5.24963 28.8348 5.47372 28.7419 5.63894 28.5764C5.80416 28.4109 5.89698 28.1865 5.89698 27.9525V21.8683H9.72298C10.4444 21.9024 11.165 21.7853 11.8386 21.5243C12.5121 21.2633 13.1239 20.8643 13.6345 20.3528C14.1451 19.8413 14.5434 19.2286 14.8039 18.5539C15.0644 17.8793 15.1812 17.1576 15.147 16.4351V10.7915C15.1812 10.069 15.0644 9.34734 14.8039 8.67269C14.5434 7.99805 14.1451 7.38534 13.6345 6.87383C13.1239 6.36232 12.5121 5.96329 11.8386 5.70232C11.165 5.44134 10.4444 5.32418 9.72298 5.35833" fill="white"/>
<path d="M25.9522 22.1011V22.8683C25.9554 22.8934 25.9529 22.919 25.9449 22.9431C25.937 22.9672 25.9237 22.9892 25.9062 23.0075C25.8403 23.1872 25.7199 23.3417 25.5619 23.4495C25.404 23.5572 25.2163 23.6128 25.0252 23.6084H23.3552C23.113 23.615 22.8778 23.5263 22.7001 23.3614C22.5223 23.1965 22.4161 22.9684 22.4042 22.7261V19.9639V19.3369C22.4107 19.097 22.512 18.8694 22.6857 18.704C22.8595 18.5386 23.0916 18.4489 23.3312 18.4546H25.0022C25.2444 18.448 25.4795 18.5367 25.6573 18.7016C25.835 18.8665 25.9413 19.0946 25.9532 19.3369V22.1231L25.9522 22.1011ZM25.3262 5.40587H19.7822C19.6695 5.40267 19.5572 5.42178 19.4519 5.46211C19.3466 5.50244 19.2502 5.56318 19.1684 5.64087C19.0865 5.71856 19.0208 5.81166 18.975 5.91484C18.9291 6.01801 18.904 6.12924 18.9012 6.24214V9.97979C18.9077 10.2198 19.009 10.4473 19.1827 10.6127C19.3565 10.7781 19.5886 10.8678 19.8282 10.8621H25.0912C25.2982 10.8903 25.4893 10.9887 25.6327 11.1409C25.776 11.293 25.863 11.4898 25.8792 11.6984V12.2092C25.871 12.4142 25.7891 12.6094 25.6485 12.7587C25.5079 12.9079 25.3181 13.0012 25.1142 13.0214H22.4942C19.0162 13.0214 16.5582 15.3439 16.5582 18.5708V23.2148C16.5163 23.9556 16.6319 24.6968 16.8974 25.3895C17.1629 26.0822 17.5722 26.7105 18.0982 27.2329C18.6243 27.7553 19.2551 28.1599 19.949 28.4199C20.6428 28.6799 21.3839 28.7894 22.1232 28.7411H29.3572C29.6557 28.7516 29.9533 28.7027 30.2329 28.5975C30.5124 28.4922 30.7684 28.3325 30.9861 28.1277C31.2038 27.9229 31.3789 27.677 31.5013 27.4041C31.6237 27.1313 31.6909 26.8368 31.6992 26.5378V11.3729C31.6992 7.70435 29.7992 5.38184 25.2772 5.38184" fill="white"/>
</svg>
