<svg width="89" height="32" viewBox="0 0 89 32" fill="none" xmlns="http://www.w3.org/2000/svg">
<path d="M5.34101 22.7344C5.69171 23.6757 6.22189 24.5397 6.90201 25.2783C7.56051 25.9835 8.36588 26.535 9.26101 26.8937C10.1938 27.2712 11.1919 27.4605 12.198 27.4505C13.1809 27.4617 14.1556 27.2697 15.0612 26.8866C15.9667 26.5036 16.7837 25.9376 17.461 25.2242C18.1406 24.4955 18.671 23.6405 19.022 22.7074C19.4058 21.6552 19.5942 20.5415 19.578 19.4214V0.821289H24.102V31.0009H19.627V28.1967C18.625 29.2509 17.4188 30.0893 16.082 30.6604C14.684 31.2495 13.1807 31.547 11.664 31.5347C10.1239 31.5404 8.5967 31.2525 7.16401 30.6864C5.80363 30.1519 4.56915 29.3399 3.53901 28.3018C2.48955 27.2348 1.66997 25.9633 1.13101 24.5662C0.533384 23.0195 0.238031 21.3722 0.261011 19.7138V0.821289H4.78501V19.4494C4.76892 20.5692 4.95735 21.6825 5.34101 22.7344Z" fill="white"/>
<path d="M31.9031 0.821289V11.8169C32.9084 10.811 34.0933 10.0028 35.3961 9.43431C36.7562 8.84286 38.2254 8.54495 39.7081 8.55999C41.2616 8.54899 42.801 8.8557 44.2321 9.46135C46.9853 10.6293 49.1769 12.8242 50.3431 15.5816C50.9477 16.9962 51.2541 18.5206 51.2431 20.0594C51.2567 21.5899 50.9502 23.1064 50.3431 24.5111C49.7616 25.8672 48.9266 27.0995 47.8831 28.1416C46.8316 29.1868 45.5913 30.0223 44.2281 30.6033C42.7986 31.214 41.2581 31.5209 39.7041 31.5047C38.2124 31.5223 36.7339 31.2243 35.3651 30.6304C34.0542 30.0616 32.8608 29.2529 31.8461 28.2457V31.0009H27.5381V0.821289H31.8771H31.9031ZM32.4031 23.0259C33.1724 24.8464 34.6146 26.2986 36.4281 27.079C37.3635 27.4836 38.3721 27.6908 39.3911 27.6879C40.3827 27.6868 41.3641 27.4869 42.2774 27.1001C43.1907 26.7132 44.0175 26.1473 44.7091 25.4355C45.389 24.7366 45.936 23.9193 46.3231 23.0239C46.7274 22.0871 46.9347 21.0769 46.9321 20.0564C46.9348 19.0271 46.7275 18.0081 46.3231 17.0618C45.9362 16.1585 45.3894 15.3326 44.7091 14.6242C44.0279 13.9359 43.2191 13.3875 42.3281 13.0097C41.4 12.6136 40.3998 12.4151 39.3911 12.4268C38.3826 12.4177 37.3829 12.6161 36.4541 13.0097C35.5547 13.3877 34.737 13.9366 34.0461 14.6262C33.3492 15.3265 32.7925 16.154 32.4061 17.0638C32.002 18.0102 31.7951 19.0292 31.7981 20.0584C31.7838 21.0773 31.9821 22.088 32.3801 23.0259H32.4031Z" fill="white"/>
<path d="M53.6765 15.607C54.2369 14.2647 55.0347 13.0348 56.0315 11.9765C57.0461 10.9187 58.2598 10.0726 59.6025 9.48671C61.0047 8.89599 62.5098 8.58921 64.031 8.58405C65.5522 8.57889 67.0593 8.87547 68.4655 9.45667C69.7753 10.0127 70.9622 10.8232 71.9575 11.8413C72.9535 12.8859 73.7278 14.122 74.2335 15.4748C74.7944 16.9278 75.0728 18.4749 75.0535 20.0327V21.4638H57.1955C57.3217 22.3431 57.6182 23.1892 58.0685 23.9546C58.9147 25.4692 60.2622 26.6405 61.8785 27.2666C62.7058 27.585 63.5851 27.7467 64.4715 27.7433C65.7093 27.7652 66.9335 27.4816 68.036 26.9176C69.1385 26.3537 70.0855 25.5266 70.7935 24.5094L73.9435 26.8419C72.88 28.2906 71.4935 29.4707 69.8945 30.2882C68.344 31.0398 66.6547 31.4609 64.9333 31.5247C63.2119 31.5885 61.4961 31.2936 59.8945 30.6587C58.5153 30.1053 57.2582 29.2859 56.1945 28.2471C55.1401 27.2083 54.2956 25.9757 53.7075 24.6166C53.0951 23.1762 52.7886 21.6241 52.8075 20.0587C52.7977 18.5484 53.0947 17.0518 53.6805 15.66L53.6765 15.607ZM59.7355 13.9114C58.4982 14.9664 57.6427 16.4004 57.3015 17.9916H70.6885C70.3773 16.4014 69.5381 14.9634 68.3075 13.9114C67.0995 12.9178 65.5847 12.3746 64.0215 12.3746C62.4583 12.3746 60.9435 12.9178 59.7355 13.9114Z" fill="white"/>
<path d="M83.2287 14.4139C82.257 15.5529 81.7638 17.0246 81.8527 18.5201V31.027H77.5137V9.00869H81.8257V11.7378C82.3515 10.8633 83.0884 10.1353 83.9687 9.62062C84.9179 9.07904 85.999 8.81304 87.0907 8.85246H88.5987V12.9036H86.7987C86.1375 12.8824 85.4798 13.0067 84.8718 13.2676C84.2638 13.5286 83.7204 13.9198 83.2797 14.4139H83.2287Z" fill="white"/>
</svg>
