<svg width="174" height="37" viewBox="0 0 174 37" fill="none" xmlns="http://www.w3.org/2000/svg">
<path fill-rule="evenodd" clip-rule="evenodd" d="M0.173828 0.96582V36.3072H86.8128V0.96582H0.173828ZM20.7848 19.4768C20.7447 20.3553 20.5479 21.2196 20.2038 22.0287C19.9099 22.7815 19.4465 23.4563 18.8498 24.0006C18.2984 24.5809 17.6109 25.014 16.8498 25.2605C15.983 25.5829 15.0655 25.7471 14.1408 25.7453C13.214 25.7746 12.2912 25.6095 11.4318 25.2605C10.692 24.9808 10.0256 24.5357 9.48343 23.9592C8.94122 23.3826 8.53745 22.6899 8.30283 21.9335C8.03189 21.1113 7.91162 20.2468 7.94783 19.3817V10.1407H10.7868V19.4117C10.76 19.9319 10.8034 20.4534 10.9158 20.962C11.0388 21.4037 11.2592 21.812 11.5608 22.1569C11.8499 22.4952 12.2144 22.7607 12.6248 22.932C13.0932 23.1335 13.5992 23.2325 14.1088 23.2225C14.6198 23.2484 15.1292 23.1487 15.5928 22.932C16.0072 22.7342 16.3882 22.4726 16.7218 22.1569C17.0625 21.8053 17.3456 21.402 17.5608 20.962C17.7469 20.4632 17.8663 19.9419 17.9158 19.4117V10.1727H20.7548V19.5089H20.6898L20.7848 19.4768ZM33.0098 25.6792C32.7739 25.6885 32.5434 25.6075 32.3648 25.4528C32.1948 25.3471 32.0514 25.2035 31.9458 25.0332L28.6878 20.0947C28.5589 19.8933 28.419 19.699 28.2688 19.5129C28.194 19.4354 28.1033 19.3752 28.003 19.3361C27.9028 19.297 27.7952 19.2801 27.6878 19.2865H26.4948V25.6501H23.6558V10.1407H28.2688C29.1841 10.1304 30.0961 10.2501 30.9778 10.4962C31.6345 10.6976 32.2551 11.0019 32.8168 11.3976C33.2869 11.7725 33.6532 12.2618 33.8808 12.8187C34.3048 13.8575 34.3504 15.0126 34.0098 16.0817C33.8603 16.5321 33.6427 16.957 33.3648 17.3416C33.0582 17.7232 32.7001 18.0603 32.3008 18.3431C31.848 18.6185 31.3734 18.8563 30.8818 19.0542C31.2459 19.2948 31.5628 19.6004 31.8168 19.9555L35.6548 25.6732H33.0428L33.0098 25.6792ZM48.4928 22.8689C48.2597 23.4227 47.8943 23.9107 47.4288 24.2901C46.9125 24.7425 46.3086 25.0834 45.6548 25.2916C44.869 25.5225 44.0548 25.6422 43.2358 25.6471H37.1358V10.1407H42.7488C43.6114 10.127 44.4709 10.2469 45.2968 10.4962C45.9299 10.6776 46.5292 10.9615 47.0708 11.3365C47.491 11.6793 47.8321 12.1091 48.0708 12.5964C48.309 13.124 48.4301 13.697 48.4258 14.2759C48.4147 14.6343 48.3715 14.9909 48.2968 15.3416C48.1744 15.6614 48.0118 15.9643 47.8128 16.2429C47.5907 16.5575 47.3048 16.8216 46.9738 17.0181C46.5986 17.2465 46.1983 17.4307 45.7808 17.5669C47.9095 18.0516 48.9738 19.1824 48.9738 20.959C48.9212 21.5896 48.7801 22.2096 48.5548 22.8008L48.4928 22.8689ZM62.6208 25.6792C62.3929 25.6477 62.1735 25.5707 61.9758 25.4528C61.8468 25.3236 61.6858 25.3236 61.6208 25.1624L60.4918 22.1258H54.1058L52.9738 25.1023C52.8958 25.2719 52.7731 25.417 52.6188 25.5219C52.448 25.6359 52.2408 25.682 52.0378 25.6511H49.8478L55.8798 10.1076H58.7798L64.8118 25.6461H62.6208V25.6792ZM79.7488 25.6792H77.9738C77.7736 25.6743 77.5763 25.6305 77.3928 25.55C77.2224 25.4447 77.0789 25.301 76.9738 25.1304L68.8738 14.8869C68.8856 15.1073 68.929 15.3248 69.0028 15.5328C69.0563 15.7438 69.0782 15.9615 69.0678 16.1788V25.7082H66.2338V10.1407H67.9438C68.0388 10.1694 68.1357 10.1911 68.2338 10.2058C68.2988 10.2058 68.3628 10.2709 68.4598 10.2709C68.5568 10.2709 68.5888 10.336 68.6858 10.4001L68.9118 10.6264L77.0118 20.8669C77.0118 20.5765 76.9468 20.3822 76.9468 20.1558V10.1076H79.7858V25.6461L79.7488 25.6792Z" fill="white"/>
<path fill-rule="evenodd" clip-rule="evenodd" d="M44.7839 16.5043C45.0427 16.2895 45.2476 16.0168 45.382 15.7082C45.5165 15.3996 45.5767 15.0638 45.5579 14.7276C45.587 14.3868 45.5381 14.0438 45.4151 13.7247C45.2921 13.4056 45.0981 13.1187 44.8479 12.8858C44.2354 12.428 43.4821 12.1995 42.7189 12.2399H39.9459V17.1823H42.5589C43.3478 17.1918 44.1182 16.942 44.7519 16.4713L44.7839 16.5043ZM57.6539 13.8854C57.5889 13.5949 57.4279 13.2394 57.3639 12.8838C57.2989 13.2394 57.1379 13.5949 57.0739 13.8854C57.0099 14.1758 56.8479 14.5964 56.7839 14.7867L54.8839 20.0196H59.7839L57.9449 14.7867C57.8005 14.5037 57.7022 14.1994 57.6539 13.8854ZM45.3649 19.4738C45.1221 19.2397 44.8375 19.0536 44.5259 18.925C44.0914 18.7603 43.6346 18.6624 43.1709 18.6345H39.9779V23.577H43.2359C43.703 23.5773 44.1648 23.4783 44.5909 23.2866C44.9044 23.1616 45.1897 22.975 45.4299 22.7377C45.639 22.5126 45.8033 22.2495 45.9139 21.9626C45.9904 21.6679 46.0337 21.3655 46.0429 21.0612C46.036 20.7567 45.9927 20.4541 45.9139 20.1598C45.7366 19.9303 45.5424 19.7144 45.3329 19.5139L45.3649 19.4738ZM31.3649 14.8869C31.3763 14.5331 31.3133 14.1808 31.1799 13.853C31.0466 13.5252 30.8459 13.2291 30.5909 12.984C29.9139 12.4767 29.08 12.2249 28.2359 12.2729H26.4629V17.2154H28.2369C28.7077 17.2804 29.1851 17.2804 29.6559 17.2154C30.0223 17.1338 30.3647 16.9679 30.6559 16.7307C30.904 16.5181 31.1024 16.2534 31.2369 15.9555C31.3155 15.6055 31.3587 15.2485 31.3659 14.8899L31.3649 14.8869ZM86.1039 0.96582V36.3072H173.453V0.96582H86.1039ZM170.613 33.4639H88.9429V3.77607H170.613V33.4639Z" fill="white"/>
<path fill-rule="evenodd" clip-rule="evenodd" d="M100.743 20.0249V25.6784H98.6826V10.4955H103.167C104.008 10.4813 104.847 10.6013 105.651 10.851C106.287 11.0522 106.887 11.3567 107.425 11.7524C107.897 12.1515 108.263 12.6623 108.489 13.2386C108.726 13.8446 108.847 14.4904 108.844 15.1415C108.85 15.7929 108.729 16.4392 108.489 17.0444C108.212 17.5915 107.853 18.0928 107.425 18.5306C106.908 18.983 106.304 19.3239 105.651 19.5321C104.865 19.7654 104.051 19.8851 103.232 19.8877H100.743V20.0169V20.0249ZM100.743 18.3453H103.227C103.752 18.3614 104.276 18.2848 104.775 18.119C105.196 17.9954 105.583 17.7741 105.904 17.473C106.207 17.1917 106.448 16.8507 106.614 16.4715C106.758 16.0667 106.835 15.6412 106.843 15.2116C106.87 14.788 106.8 14.3637 106.638 13.9714C106.476 13.5792 106.226 13.2295 105.908 12.9492C105.534 12.6372 105.102 12.4023 104.637 12.2581C104.172 12.1139 103.683 12.0632 103.199 12.1089H100.715V18.3113L100.743 18.3453ZM116.101 25.6784H114.037V10.4955H116.101V25.6784ZM123.201 20.0249V25.6784H121.133V10.4955H125.617C126.458 10.4813 127.297 10.6013 128.101 10.851C128.737 11.0522 129.337 11.3567 129.875 11.7524C130.349 12.1518 130.716 12.6638 130.943 13.2416C131.18 13.8476 131.301 14.4934 131.298 15.1445C131.305 15.7986 131.184 16.4478 130.943 17.0554C130.666 17.6026 130.307 18.1039 129.879 18.5416C129.362 18.994 128.758 19.3349 128.105 19.5431C127.319 19.7764 126.505 19.8962 125.686 19.8987H123.197V20.0279L123.201 20.0249ZM123.201 18.3453H125.685C126.21 18.3614 126.734 18.2848 127.233 18.119C127.654 17.9954 128.041 17.7741 128.362 17.473C128.665 17.1917 128.906 16.8507 129.072 16.4715C129.215 16.0666 129.291 15.6411 129.298 15.2116C129.324 14.7876 129.254 14.363 129.091 13.9708C128.928 13.5785 128.677 13.229 128.358 12.9492C127.984 12.6372 127.552 12.4023 127.087 12.2581C126.622 12.1139 126.133 12.0632 125.649 12.1089H123.165V18.3113L123.201 18.3453ZM146.201 10.4955V12.175H138.874V17.1826H144.843V18.798H138.874V23.9658H146.196V25.6454H136.809V10.4955H146.201ZM153.523 19.3148V25.6784H151.454V10.4955H155.776C156.614 10.4626 157.452 10.5606 158.26 10.7859C158.893 10.9673 159.492 11.2512 160.034 11.6262C160.478 11.9847 160.823 12.4522 161.034 12.9832C161.275 13.544 161.396 14.1493 161.389 14.7599C161.418 15.2718 161.318 15.7829 161.099 16.2462C160.953 16.7116 160.711 17.141 160.389 17.5061C160.057 17.8856 159.651 18.1925 159.196 18.4074C158.72 18.6953 158.195 18.8926 157.648 18.9893C157.935 19.1407 158.18 19.363 158.358 19.6353L162.842 25.6444H161.001C160.838 25.6428 160.678 25.6042 160.533 25.5315C160.387 25.4588 160.26 25.3539 160.162 25.2247L156.195 19.7995C156.067 19.6678 155.926 19.5487 155.776 19.444C155.567 19.3812 155.348 19.3591 155.131 19.3789H153.583L153.523 19.3148ZM153.523 17.8286H155.643C156.168 17.8498 156.693 17.7731 157.191 17.6022C157.614 17.4789 158.002 17.2572 158.324 16.9552C158.616 16.703 158.857 16.397 159.034 16.0539C159.177 15.6693 159.254 15.2627 159.26 14.8521C159.287 14.4615 159.215 14.0705 159.052 13.7149C158.888 13.3592 158.638 13.0505 158.325 12.817C157.517 12.3048 156.57 12.0564 155.616 12.1059H153.357V17.8235H153.486L153.523 17.8286Z" fill="white"/>
</svg>
