<svg width="135" height="31" viewBox="0 0 135 31" fill="none" xmlns="http://www.w3.org/2000/svg">
<path d="M11.8985 0.851562H2.83445C2.33236 0.861242 1.85398 1.06735 1.5017 1.42579C1.14941 1.78422 0.951189 2.26651 0.949453 2.76946C0.945724 2.98516 0.98658 3.19929 1.06945 3.39841L5.97545 11.8472C6.23762 12.1845 6.57352 12.4571 6.95733 12.6441C7.34114 12.8311 7.76264 12.9275 8.18945 12.9258H12.3175C12.8288 12.9231 13.3205 13.1234 13.6848 13.4828C14.0491 13.8423 14.2564 14.3316 14.2615 14.8437C14.2605 15.1818 14.1675 15.5131 13.9925 15.8022L11.9285 19.3696C11.7163 19.7387 11.59 20.1511 11.559 20.5759C11.528 21.0008 11.5931 21.4271 11.7495 21.8233L16.6555 30.3021C16.9816 30.682 17.4446 30.9173 17.9434 30.9565C18.4421 30.9957 18.9361 30.8357 19.3175 30.5114C19.4884 30.3699 19.6306 30.1968 19.7365 30.0016L24.2235 22.1217L11.8985 0.851562Z" fill="white"/>
<path d="M30.3554 11.4574L24.1934 0.821289L11.8984 0.851334L24.2234 22.1535L30.3554 11.4574Z" fill="white"/>
<path d="M33.1967 0.821289H24.2227L30.3847 11.4574L34.8727 3.63755C35.1198 3.2038 35.1861 2.68996 35.0573 2.20753C34.9285 1.7251 34.6149 1.313 34.1847 1.06065C33.8762 0.910894 33.5393 0.829263 33.1967 0.821289Z" fill="white"/>
<path d="M57.9067 5.28499C57.893 5.42156 57.8523 5.55402 57.7867 5.67457L48.8427 23.7399C48.8095 23.8582 48.7393 23.9627 48.6425 24.0382C48.5457 24.1137 48.4274 24.1562 48.3047 24.1595C48.0957 24.1595 47.9157 24.0093 47.7667 23.7399L38.8817 5.67457C38.8817 5.67457 38.7917 5.40517 38.7617 5.28499C38.7617 4.92544 39.0007 4.74617 39.4497 4.74617H42.3817C42.5845 4.7301 42.7871 4.77986 42.9595 4.88809C43.1318 4.99631 43.2648 5.15726 43.3387 5.34708L48.2747 15.6236L53.2407 5.34508C53.3146 5.15525 53.4476 4.99431 53.62 4.88608C53.7923 4.77786 53.9949 4.72809 54.1977 4.74417H57.1597C57.6087 4.74417 57.8477 4.92344 57.8477 5.28298L57.9067 5.28499Z" fill="white"/>
<path d="M64.398 29.9123H61.646C61.167 29.9123 60.958 29.733 60.958 29.3435C60.9591 29.2086 60.9899 29.0756 61.048 28.9539L63.202 23.8011L57.309 10.5581C57.2653 10.4318 57.2351 10.3012 57.219 10.1685C57.2168 10.0941 57.2318 10.0203 57.2629 9.95268C57.2939 9.88509 57.3402 9.82562 57.398 9.77888C57.545 9.671 57.725 9.61787 57.907 9.62865H60.869C61.0622 9.6251 61.252 9.68073 61.4128 9.78812C61.5736 9.89551 61.6979 10.0495 61.769 10.2296L65.269 19.0379L68.469 10.2596C68.5242 10.0597 68.6465 9.88502 68.8154 9.76498C68.9843 9.64493 69.1893 9.58688 69.396 9.60061H72.328C72.5189 9.58988 72.7081 9.6427 72.866 9.75084C72.922 9.80544 72.9667 9.87065 72.9975 9.94269C73.0282 10.0147 73.0443 10.0921 73.045 10.1705C73.0434 10.2957 73.0126 10.4189 72.955 10.53L65.327 29.2583C65.2595 29.4484 65.1332 29.612 64.9665 29.7251C64.7997 29.8383 64.6012 29.8951 64.4 29.8873L64.398 29.9123Z" fill="white"/>
<path d="M85.1288 24.1606C85.0498 24.0836 84.9897 23.9892 84.9535 23.8849C84.9172 23.7806 84.9057 23.6692 84.9198 23.5597V22.9007C84.4395 23.4686 83.8208 23.9026 83.1238 24.1606C82.2718 24.5198 81.3562 24.7031 80.4318 24.6994C79.0502 24.7357 77.6849 24.3939 76.4828 23.7109C75.3701 23.0425 74.476 22.0639 73.9098 20.8947C73.3134 19.6834 73.0053 18.3503 73.0098 16.9998C73.0086 15.64 73.3164 14.2978 73.9098 13.0748C74.4869 11.9284 75.3802 10.9719 76.4838 10.3187C77.6835 9.62655 79.0486 9.27445 80.4328 9.30014C81.3453 9.28945 82.2506 9.46282 83.0948 9.80991C83.8085 10.0972 84.4377 10.561 84.9238 11.1579V10.4389C84.9179 10.2377 84.989 10.0419 85.1224 9.89152C85.2559 9.74111 85.4417 9.64743 85.6418 9.62964H88.0948C88.1932 9.62074 88.2924 9.63159 88.3866 9.66156C88.4808 9.69153 88.5681 9.74002 88.6433 9.80418C88.7186 9.86835 88.7803 9.9469 88.8248 10.0352C88.8694 10.1236 88.8959 10.2199 88.9028 10.3187V23.6208C88.9117 23.7194 88.9009 23.8187 88.8709 23.913C88.841 24.0074 88.7926 24.0948 88.7285 24.1701C88.6645 24.2455 88.586 24.3073 88.4978 24.3519C88.4096 24.3965 88.3134 24.4231 88.2148 24.43H85.7238C85.5053 24.4343 85.2924 24.3601 85.1238 24.2207L85.1288 24.1606ZM83.9618 13.9452C83.5775 13.5619 83.1197 13.2605 82.616 13.0593C82.1122 12.8581 81.573 12.7612 81.0308 12.7744C80.4829 12.7509 79.9362 12.8427 79.426 13.0441C78.9158 13.2454 78.4534 13.5517 78.0688 13.9432C77.6941 14.3494 77.4033 14.8258 77.2133 15.3451C77.0233 15.8644 76.9378 16.4162 76.9618 16.9687C76.9426 17.5187 77.0332 18.067 77.2285 18.5814C77.4237 19.0958 77.7196 19.566 78.0988 19.9643C78.4776 20.3551 78.9346 20.6614 79.44 20.8628C79.9453 21.0642 80.4874 21.1563 81.0308 21.133C81.5745 21.1656 82.1189 21.0838 82.629 20.8928C83.1392 20.7019 83.6038 20.406 83.9928 20.0244C84.3641 19.611 84.6504 19.1283 84.8352 18.604C85.02 18.0796 85.0997 17.524 85.0698 16.9687C85.0964 16.4114 85.0123 15.8543 84.8222 15.3298C84.6322 14.8052 84.3401 14.3237 83.9628 13.9131L83.9618 13.9452Z" fill="white"/>
<path d="M94.4322 9.81028C94.5092 9.88874 94.5679 9.98333 94.604 10.0872C94.6402 10.1911 94.6529 10.3018 94.6412 10.4112V11.0702C95.1212 10.5024 95.7395 10.0685 96.4362 9.81028C97.2881 9.45107 98.2038 9.2678 99.1282 9.27147C100.499 9.24995 101.85 9.59092 103.047 10.26C104.166 10.916 105.069 11.8842 105.647 13.0462C106.241 14.2692 106.548 15.6114 106.547 16.9711C106.563 18.3325 106.254 19.678 105.647 20.896C105.072 22.0341 104.192 22.9888 103.104 23.6522C101.896 24.3482 100.522 24.7011 99.1282 24.6728C98.2157 24.6834 97.3104 24.5101 96.4662 24.163C95.754 23.8751 95.1261 23.4114 94.6412 22.8149V28.2972C94.6501 28.3958 94.6392 28.4952 94.6093 28.5895C94.5794 28.6838 94.531 28.7712 94.4669 28.8466C94.4028 28.9219 94.3244 28.9837 94.2362 29.0284C94.148 29.073 94.0518 29.0995 93.9532 29.1065H91.4712C91.3727 29.1154 91.2735 29.1045 91.1794 29.0745C91.0852 29.0446 90.9979 28.9961 90.9227 28.9319C90.8474 28.8677 90.7857 28.7892 90.7411 28.7008C90.6966 28.6125 90.6701 28.5161 90.6632 28.4174V10.3791C90.6543 10.2806 90.6651 10.1812 90.695 10.0869C90.725 9.99256 90.7734 9.90516 90.8374 9.8298C90.9015 9.75444 90.98 9.69264 91.0682 9.64802C91.1564 9.6034 91.2526 9.57684 91.3512 9.56992H93.8342C94.0527 9.56559 94.2656 9.63985 94.4342 9.77923L94.4322 9.81028ZM95.5992 20.0257C95.9796 20.4144 96.4369 20.7191 96.9419 20.9204C97.4468 21.1216 97.9881 21.215 98.5312 21.1945C99.0784 21.2149 99.6239 21.1216 100.133 20.9204C100.643 20.7193 101.105 20.4146 101.491 20.0257C101.868 19.6211 102.16 19.1448 102.35 18.6252C102.541 18.1055 102.625 17.553 102.598 17.0002C102.617 16.4502 102.527 15.9019 102.332 15.3875C102.136 14.8731 101.84 14.4029 101.461 14.0046C101.078 13.6194 100.62 13.3169 100.116 13.1159C99.6118 12.9148 99.0717 12.8195 98.5292 12.8359C97.9862 12.8039 97.4425 12.886 96.9331 13.0769C96.4237 13.2678 95.9598 13.5634 95.5712 13.9445C94.8241 14.7829 94.4277 15.877 94.4642 17.0002C94.4375 17.553 94.5217 18.1055 94.7119 18.6252C94.902 19.1448 95.1942 19.6211 95.5712 20.0257H95.5992Z" fill="white"/>
<path d="M120.218 24.1606C120.139 24.0836 120.079 23.9892 120.043 23.8849C120.007 23.7806 119.995 23.6692 120.009 23.5597V22.9007C119.529 23.4677 118.911 23.901 118.214 24.1586C117.362 24.5178 116.447 24.7011 115.522 24.6974C114.141 24.7337 112.775 24.3919 111.573 23.7089C110.453 23.0414 109.55 22.0633 108.973 20.8927C108.377 19.6814 108.069 18.3483 108.073 16.9978C108.072 15.638 108.38 14.2958 108.973 13.0728C109.55 11.9277 110.441 10.9719 111.543 10.3187C112.743 9.62655 114.108 9.27445 115.492 9.30014C116.405 9.28945 117.31 9.46282 118.154 9.80991C118.866 10.0978 119.494 10.5615 119.979 11.1579V10.4389C119.973 10.2377 120.044 10.0419 120.178 9.89152C120.311 9.74111 120.497 9.64743 120.697 9.62964H123.18C123.279 9.62074 123.378 9.63159 123.472 9.66156C123.566 9.69153 123.654 9.74002 123.729 9.80418C123.804 9.86835 123.866 9.9469 123.91 10.0352C123.955 10.1236 123.981 10.2199 123.988 10.3187V23.6208C123.997 23.7194 123.986 23.8187 123.956 23.913C123.926 24.0074 123.878 24.0948 123.814 24.1701C123.75 24.2455 123.672 24.3073 123.583 24.3519C123.495 24.3965 123.399 24.4231 123.3 24.43H120.817C120.598 24.4393 120.383 24.3644 120.217 24.2207L120.218 24.1606ZM119.051 13.9452C118.667 13.5619 118.209 13.2605 117.705 13.0593C117.202 12.8581 116.662 12.7612 116.12 12.7744C115.573 12.7517 115.027 12.8441 114.518 13.0456C114.009 13.247 113.547 13.5531 113.163 13.9442C112.789 14.3504 112.498 14.8268 112.308 15.3461C112.118 15.8654 112.032 16.4172 112.056 16.9697C112.037 17.5197 112.128 18.068 112.323 18.5824C112.518 19.0968 112.814 19.567 113.193 19.9653C113.572 20.3561 114.029 20.6624 114.534 20.8638C115.04 21.0652 115.582 21.1573 116.125 21.134C116.669 21.1666 117.213 21.0848 117.724 20.8938C118.234 20.7029 118.698 20.407 119.087 20.0254C119.458 19.6119 119.744 19.1292 119.929 18.6049C120.114 18.0805 120.193 17.5249 120.163 16.9697C120.193 16.4121 120.11 15.8543 119.92 15.3294C119.729 14.8045 119.436 14.3232 119.056 13.9141L119.051 13.9452Z" fill="white"/>
<path d="M134.607 9.539C134.685 9.62312 134.743 9.72265 134.779 9.83106C134.815 9.93946 134.828 10.0543 134.816 10.1679V12.4454C134.816 12.9248 134.547 13.1945 134.008 13.2546C133.419 13.2875 132.841 13.4298 132.303 13.6742C131.713 13.9276 131.183 14.3054 130.751 14.7819C130.047 15.6485 129.704 16.7539 129.794 17.8676V23.5902C129.803 23.6888 129.792 23.7882 129.762 23.8825C129.733 23.9768 129.684 24.0642 129.62 24.1396C129.556 24.2149 129.478 24.2767 129.389 24.3214C129.301 24.366 129.205 24.3925 129.106 24.3995H126.59C126.492 24.4084 126.393 24.3975 126.298 24.3675C126.204 24.3376 126.117 24.2891 126.042 24.2249C125.967 24.1607 125.905 24.0822 125.86 23.9939C125.816 23.9055 125.789 23.8092 125.782 23.7104V10.3783C125.773 10.2797 125.784 10.1803 125.814 10.086C125.844 9.99168 125.893 9.90428 125.957 9.82892C126.021 9.75357 126.099 9.69177 126.187 9.64714C126.276 9.60252 126.372 9.57597 126.47 9.56904H128.983C129.082 9.56014 129.181 9.57099 129.275 9.60097C129.369 9.63094 129.457 9.67942 129.532 9.74359C129.607 9.80775 129.669 9.88631 129.713 9.97465C129.758 10.063 129.784 10.1594 129.791 10.2581V11.547C130.3 10.8865 130.955 10.3537 131.705 9.99068C132.44 9.63992 133.229 9.41707 134.038 9.33168C134.254 9.31177 134.469 9.37599 134.638 9.51095L134.607 9.539Z" fill="white"/>
</svg>
