<svg width="2729" height="1093" viewBox="0 0 2729 1093" fill="none" xmlns="http://www.w3.org/2000/svg">
<g opacity="0.3">
<mask id="mask0_187_15656" style="mask-type:luminance" maskUnits="userSpaceOnUse" x="0" y="0" width="2729" height="1093">
<path d="M2728.29 -0.00012207L2728.29 1092.27L0.000244141 1092.27L0.000200799 9.30247e-06L2728.29 -0.00012207Z" fill="white"/>
</mask>
<g mask="url(#mask0_187_15656)">
<g opacity="0.317">
<path d="M2798.78 972.806L-135.562 972.806" stroke="#886ED5"/>
<path d="M2798.78 915.916L-135.562 915.916" stroke="#886ED5"/>
<path d="M2798.78 859.027L-135.562 859.027" stroke="#886ED5"/>
<path d="M2798.78 802.138L-135.562 802.138" stroke="#886ED5"/>
<path d="M2798.78 745.249L-135.562 745.249" stroke="#886ED5"/>
<path d="M2798.78 688.359L-135.562 688.36" stroke="#886ED5"/>
<path d="M2798.78 631.47L-135.562 631.47" stroke="#886ED5"/>
<path d="M2798.78 574.581L-135.562 574.581" stroke="#886ED5"/>
<path d="M2798.78 517.691L-135.562 517.692" stroke="#886ED5"/>
<path d="M2798.78 460.802L-135.562 460.802" stroke="#886ED5"/>
<path d="M2798.78 403.913L-135.562 403.913" stroke="#886ED5"/>
<path d="M2798.78 347.024L-135.562 347.024" stroke="#886ED5"/>
<path d="M2798.78 290.135L-135.562 290.135" stroke="#886ED5"/>
<path d="M2798.78 233.246L-135.562 233.246" stroke="#886ED5"/>
<path d="M2798.78 176.356L-135.562 176.356" stroke="#886ED5"/>
<path d="M2798.78 119.467L-135.562 119.467" stroke="#886ED5"/>
<path d="M2798.78 62.5776L-135.562 62.5778" stroke="#886ED5"/>
<path d="M2798.78 1029.69L-135.562 1029.69" stroke="#886ED5"/>
<path d="M2624.74 -65.6069L2624.74 1157.88" stroke="#886ED5"/>
<path d="M2573.1 -65.6069L2573.1 1157.88" stroke="#886ED5"/>
<path d="M2521.46 -65.6069L2521.46 1157.88" stroke="#886ED5"/>
<path d="M2469.82 -65.6069L2469.82 1157.88" stroke="#886ED5"/>
<path d="M2418.17 -65.6069L2418.17 1157.88" stroke="#886ED5"/>
<path d="M2366.53 -65.6069L2366.53 1157.88" stroke="#886ED5"/>
<path d="M2314.89 -65.6069L2314.89 1157.88" stroke="#886ED5"/>
<path d="M2263.24 -65.6069L2263.24 1157.88" stroke="#886ED5"/>
<path d="M2211.6 -65.6069L2211.6 1157.88" stroke="#886ED5"/>
<path d="M2159.96 -65.6069L2159.96 1157.88" stroke="#886ED5"/>
<path d="M2108.32 -65.6069L2108.32 1157.88" stroke="#886ED5"/>
<path d="M2056.67 -65.6069L2056.67 1157.88" stroke="#886ED5"/>
<path d="M2005.03 -65.6069L2005.03 1157.88" stroke="#886ED5"/>
<path d="M1953.39 -65.6069L1953.39 1157.88" stroke="#886ED5"/>
<path d="M1901.75 -65.6069L1901.75 1157.88" stroke="#886ED5"/>
<path d="M1850.1 -65.6069L1850.1 1157.88" stroke="#886ED5"/>
<path d="M1798.46 -65.6069L1798.46 1157.88" stroke="#886ED5"/>
<path d="M2676.39 -65.6069L2676.39 1157.88" stroke="#886ED5"/>
<path d="M1694.66 -66.1758L1694.66 1157.31" stroke="#886ED5"/>
<path d="M1643.02 -66.1758L1643.02 1157.31" stroke="#886ED5"/>
<path d="M1591.37 -66.1758L1591.37 1157.31" stroke="#886ED5"/>
<path d="M1539.73 -66.1758L1539.73 1157.31" stroke="#886ED5"/>
<path d="M1488.09 -66.1758L1488.09 1157.31" stroke="#886ED5"/>
<path d="M1436.44 -66.1758L1436.44 1157.31" stroke="#886ED5"/>
<path d="M1384.8 -66.1758L1384.8 1157.31" stroke="#886ED5"/>
<path d="M1333.16 -66.1758L1333.16 1157.31" stroke="#886ED5"/>
<path d="M1281.52 -66.1758L1281.52 1157.31" stroke="#886ED5"/>
<path d="M1229.87 -66.1758L1229.87 1157.31" stroke="#886ED5"/>
<path d="M1178.23 -66.1758L1178.23 1157.31" stroke="#886ED5"/>
<path d="M1126.59 -66.1758L1126.59 1157.31" stroke="#886ED5"/>
<path d="M1074.95 -66.1758L1074.95 1157.31" stroke="#886ED5"/>
<path d="M1023.3 -66.1758L1023.3 1157.31" stroke="#886ED5"/>
<path d="M971.659 -66.1758L971.659 1157.31" stroke="#886ED5"/>
<path d="M920.016 -66.1758L920.016 1157.31" stroke="#886ED5"/>
<path d="M868.374 -66.1758L868.374 1157.31" stroke="#886ED5"/>
<path d="M1746.3 -66.1763L1746.3 1157.31" stroke="#886ED5"/>
<path d="M767.154 -66.1758L767.154 1157.31" stroke="#886ED5"/>
<path d="M715.51 -66.1758L715.51 1157.31" stroke="#886ED5"/>
<path d="M663.868 -66.1758L663.868 1157.31" stroke="#886ED5"/>
<path d="M612.225 -66.1758L612.225 1157.31" stroke="#886ED5"/>
<path d="M560.582 -66.1758L560.582 1157.31" stroke="#886ED5"/>
<path d="M508.939 -66.1758L508.939 1157.31" stroke="#886ED5"/>
<path d="M457.297 -66.1758L457.297 1157.31" stroke="#886ED5"/>
<path d="M405.653 -66.1758L405.653 1157.31" stroke="#886ED5"/>
<path d="M354.011 -66.1758L354.011 1157.31" stroke="#886ED5"/>
<path d="M302.368 -66.1758L302.368 1157.31" stroke="#886ED5"/>
<path d="M250.725 -66.1758L250.725 1157.31" stroke="#886ED5"/>
<path d="M199.083 -66.1758L199.083 1157.31" stroke="#886ED5"/>
<path d="M147.44 -66.1758L147.44 1157.31" stroke="#886ED5"/>
<path d="M95.7964 -66.1758L95.7964 1157.31" stroke="#886ED5"/>
<path d="M44.1543 -66.1758L44.1543 1157.31" stroke="#886ED5"/>
<path d="M818.796 -66.1763L818.796 1157.31" stroke="#886ED5"/>
</g>
</g>
</g>
</svg>
