<?xml version="1.0" encoding="UTF-8"?>
<svg id="Layer_2" data-name="Layer 2" xmlns="http://www.w3.org/2000/svg" viewBox="0 0 146.67 38.1">
  <defs>
    <style>
      .cls-1, .cls-2, .cls-3 {
        stroke-width: 0px;
      }
      .cls-1{
        fill: #fff;
      }
      .cls-2 {
        fill: #0c0607;
      }
     

      .cls-3 {
        fill: #e61b33;
      }
    </style>
  </defs>
  <g id="Layer_1-2" data-name="Layer 1">
    <g>
      <g>
        <path class="cls-1" d="m.17,12.7h6.35v4.18c1.67-3.34,4.51-4.68,8.02-4.51,3.51,0,6.18,1.67,7.69,4.68.5-.67,1-1.5,1.67-2.17,1.67-1.67,3.68-2.34,6.02-2.67,1.5-.17,3.01,0,4.51.5,2.67.84,4.34,2.84,5.18,5.35.67,1.84.84,3.68.84,5.68v13.87h-6.18v-13.2c0-1-.17-2.01-.33-2.84-.5-1.84-1.84-3.01-3.84-3.34-2.34-.33-4.18.33-5.51,2.51-.67,1-.84,2.17-1,3.17,0,4.34,0,8.52-.17,12.87v.84h-6.35v-14.04c0-1.5-.33-2.84-1.34-3.84-1.5-1.67-3.51-1.84-5.51-1.17-2.34.67-3.34,2.51-3.68,4.85-.17.84-.17,1.67-.17,2.34v11.86H0c.17-8.35.17-16.71.17-24.9Z"/>
        <path class="cls-1" d="m64.83,15.54v-2.84h6.18v24.9h-6.18v-3.17h-.17c-1.67,2.17-4.01,3.17-6.68,3.51-4.01.5-7.69-.67-10.53-3.68-2.01-2.17-3.17-4.68-3.34-7.69-.33-3.17.17-6.02,1.84-8.69,2.51-4.18,6.52-6.02,11.36-5.85,2.34.17,4.34.84,6.18,2.17.5.5,1,1,1.34,1.34Zm-7.35,2.34c-4.01,0-7.02,3.01-7.02,7.18s3.01,7.35,7.02,7.35,7.35-3.17,7.35-7.18-3.34-7.35-7.35-7.35Z"/>
        <path class="cls-1" d="m118.63,15.54v-3.01h6.18v24.9h-6.18v-3.17c-.5.5-.84,1-1.34,1.34-2.01,1.67-4.51,2.51-7.18,2.51-3.51,0-6.52-1.34-8.86-3.84-2.01-2.17-3.17-4.85-3.34-7.85-.33-3.17.17-6.18,2.01-8.86,2.67-4.01,6.35-5.68,11.19-5.51,2.34.17,4.34.84,6.18,2.17.33.5.84,1,1.34,1.34Zm-7.35,2.34c-4.01,0-7.02,3.01-7.02,7.18s3.17,7.18,7.02,7.35c4.01,0,7.35-3.17,7.35-7.35-.17-4.01-3.34-7.18-7.35-7.18Z"/>
        <path class="cls-1" d="m94.57,19.88h-5.85c-.67-2.51-3.34-3.68-5.51-2.17-1.67,1-1.67,3.01.17,3.84,1.17.5,2.34.67,3.51,1,1.84.5,3.68.84,5.18,1.84,3.51,2.17,4.51,6.52,2.17,9.86-1.34,1.84-3.17,2.67-5.18,3.34-3.34.84-6.68.67-9.86-1-2.51-1.5-4.01-3.51-4.18-6.52v-.17h5.85c.17,1.67,1.17,2.67,2.84,3.17,1.34.33,2.67.17,4.01-.33,1-.5,1.5-1.34,1.5-2.51-.17-.84-.67-1.34-1.34-1.67-1-.33-2.17-.67-3.17-1-1.67-.5-3.51-.84-5.01-1.67-3.84-2.01-4.51-6.35-3.17-9.02,1-2.01,2.67-3.17,4.68-3.84,3.51-1.17,7.02-1,10.36,1,2.17,1.34,3.17,3.34,3.17,5.85q-.17-.17-.17,0Z"/>
        <path class="cls-1" d="m136.68,12.7v24.9h-6.18V12.7h6.18Z"/>
        <path class="cls-3" d="m136.68,12.7h-6.18v16.71l6.18-7.52v-9.19Z"/>
        <path class="cls-1" d="m133.5,7.02c2.01,0,3.51-1.5,3.51-3.51,0-1.84-1.5-3.51-3.51-3.51s-3.51,1.67-3.51,3.68c0,1.84,1.67,3.34,3.51,3.34Z"/>
      </g>
      <g>
        <path class="cls-1" d="m141.99,32.74c.24-.05.59-.08.92-.08.51,0,.84.09,1.07.3.19.16.29.42.29.7,0,.49-.31.81-.7.95v.02c.29.1.46.36.55.75.12.52.21.87.29,1.02h-.5c-.06-.1-.14-.42-.25-.89-.11-.51-.31-.7-.74-.72h-.45v1.61h-.48v-3.66Zm.48,1.69h.49c.51,0,.84-.28.84-.7,0-.48-.35-.69-.86-.69-.23,0-.4.02-.47.04v1.36Z"/>
        <path class="cls-1" d="m143.08,38.1c-1.98,0-3.59-1.61-3.59-3.59s1.61-3.59,3.59-3.59,3.59,1.61,3.59,3.59-1.61,3.59-3.59,3.59Zm0-6.68c-1.71,0-3.09,1.39-3.09,3.09s1.39,3.09,3.09,3.09,3.09-1.39,3.09-3.09-1.39-3.09-3.09-3.09Z"/>
      </g>
    </g>
  </g>
</svg>